<?xml version="1.0" encoding="utf-8"?>
<!-- Generator: Adobe Illustrator 24.0.2, SVG Export Plug-In . SVG Version: 6.00 Build 0)  -->
<svg version="1.1" id="Layer_1" xmlns="http://www.w3.org/2000/svg" xmlns:xlink="http://www.w3.org/1999/xlink" x="0px" y="0px"
	 viewBox="0 0 100 100" enable-background="new 0 0 100 100" xml:space="preserve" height="70" width="70">
<g>
	<path fill="#156BA3" d="M7.813,66.211C3.505,66.211,0,69.716,0,74.023s3.505,7.813,7.813,7.813v8.398
		c0,1.079,0.874,1.953,1.953,1.953h32.422c1.079,0,1.953-0.874,1.953-1.953V79.523c0-0.635-0.309-1.23-0.828-1.596
		c-0.519-0.366-1.183-0.457-1.781-0.243c-0.464,0.165-0.888,0.246-1.297,0.246c-2.154,0-3.906-1.752-3.906-3.906
		s1.752-3.906,3.906-3.906c0.409,0,0.833,0.08,1.297,0.246c0.598,0.214,1.263,0.122,1.781-0.243
		c0.519-0.366,0.828-0.961,0.828-1.596V57.813c0-1.079-0.874-1.953-1.953-1.953h-8.398c0-4.308-3.505-7.813-7.813-7.813
		s-7.813,3.505-7.813,7.813H9.766c-1.079,0-1.953,0.874-1.953,1.953V66.211z M9.11,70.363c0.598,0.214,1.263,0.122,1.781-0.243
		c0.519-0.366,0.828-0.961,0.828-1.596v-8.758h8.758c0.635,0,1.23-0.309,1.596-0.828c0.366-0.519,0.457-1.183,0.243-1.781
		c-0.165-0.464-0.246-0.888-0.246-1.297c0-2.154,1.752-3.906,3.906-3.906s3.906,1.752,3.906,3.906c0,0.409-0.08,0.833-0.246,1.297
		c-0.213,0.598-0.122,1.263,0.243,1.781c0.366,0.519,0.961,0.828,1.596,0.828h8.758v6.445c-4.308,0-7.813,3.505-7.813,7.813
		s3.505,7.813,7.813,7.813v6.445H11.719v-8.758c0-0.635-0.309-1.23-0.828-1.596c-0.519-0.366-1.183-0.457-1.781-0.243
		c-0.464,0.165-0.888,0.246-1.297,0.246c-2.154,0-3.906-1.752-3.906-3.906s1.752-3.906,3.906-3.906
		C8.221,70.117,8.646,70.198,9.11,70.363z"/>
	<path fill="#156BA3" d="M92.188,18.164V9.766c0-1.079-0.874-1.953-1.953-1.953H57.813c-1.079,0-1.953,0.874-1.953,1.953v10.711
		c0,0.635,0.309,1.23,0.828,1.596c0.519,0.366,1.183,0.457,1.781,0.243c0.464-0.165,0.888-0.246,1.297-0.246
		c2.154,0,3.906,1.752,3.906,3.906s-1.752,3.906-3.906,3.906c-0.409,0-0.833-0.08-1.297-0.246c-0.598-0.213-1.263-0.122-1.781,0.243
		c-0.519,0.366-0.828,0.961-0.828,1.596v10.711c0,1.079,0.874,1.953,1.953,1.953h8.398c0,4.308,3.505,7.813,7.813,7.813
		s7.813-3.505,7.813-7.813h8.398c1.079,0,1.953-0.874,1.953-1.953v-8.398c4.308,0,7.813-3.505,7.813-7.813
		S96.495,18.164,92.188,18.164z M92.188,29.883c-0.409,0-0.833-0.08-1.297-0.246c-0.598-0.213-1.262-0.122-1.781,0.243
		c-0.519,0.366-0.828,0.961-0.828,1.596v8.758h-8.758c-0.635,0-1.23,0.309-1.596,0.828c-0.366,0.519-0.457,1.183-0.243,1.781
		c0.165,0.464,0.246,0.888,0.246,1.297c0,2.154-1.752,3.906-3.906,3.906s-3.906-1.752-3.906-3.906c0-0.409,0.08-0.833,0.246-1.297
		c0.213-0.598,0.122-1.263-0.243-1.781c-0.366-0.519-0.961-0.828-1.596-0.828h-8.758v-6.445c4.308,0,7.813-3.505,7.813-7.813
		s-3.505-7.813-7.813-7.813v-6.445h28.516v8.758c0,0.635,0.309,1.23,0.828,1.596c0.519,0.366,1.183,0.457,1.781,0.243
		c0.464-0.165,0.888-0.246,1.297-0.246c2.154,0,3.906,1.752,3.906,3.906S94.341,29.883,92.188,29.883z"/>
	<path fill="#156BA3" d="M42.188,7.813h-8.398C33.789,3.505,30.284,0,25.977,0s-7.813,3.505-7.813,7.813H9.766
		c-1.079,0-1.953,0.874-1.953,1.953v32.422c0,1.079,0.874,1.953,1.953,1.953h10.711c0.635,0,1.23-0.309,1.596-0.828
		c0.366-0.519,0.457-1.183,0.243-1.781c-0.165-0.464-0.246-0.888-0.246-1.297c0-2.154,1.752-3.906,3.906-3.906
		s3.906,1.752,3.906,3.906c0,0.409-0.08,0.833-0.246,1.297c-0.213,0.598-0.122,1.263,0.243,1.781
		c0.366,0.519,0.961,0.828,1.596,0.828h10.711c1.079,0,1.953-0.874,1.953-1.953v-8.398c4.308,0,7.813-3.505,7.813-7.813
		s-3.505-7.813-7.813-7.813V9.766C44.141,8.687,43.266,7.813,42.188,7.813z M48.047,25.977c0,2.154-1.752,3.906-3.906,3.906
		c-0.409,0-0.833-0.08-1.297-0.246c-0.598-0.213-1.263-0.122-1.781,0.243c-0.519,0.366-0.828,0.961-0.828,1.596v8.758h-6.445
		c0-4.308-3.505-7.813-7.813-7.813s-7.813,3.505-7.813,7.813h-6.445V11.719h8.758c0.635,0,1.23-0.309,1.596-0.828
		c0.366-0.519,0.457-1.183,0.243-1.781c-0.165-0.464-0.246-0.888-0.246-1.297c0-2.154,1.752-3.906,3.906-3.906
		s3.906,1.752,3.906,3.906c0,0.409-0.08,0.833-0.246,1.297c-0.213,0.598-0.122,1.263,0.243,1.781
		c0.366,0.519,0.961,0.828,1.596,0.828h8.758v8.758c0,0.635,0.309,1.23,0.828,1.596c0.519,0.366,1.183,0.457,1.781,0.243
		c0.464-0.165,0.888-0.246,1.297-0.246C46.295,22.07,48.047,23.823,48.047,25.977z"/>
	<circle fill="#FA8503" cx="90.234" cy="74.023" r="1.953"/>
	<path fill="#FA8503" d="M70.12,56.687c-0.366-0.519-0.961-0.828-1.596-0.828H57.813c-1.079,0-1.953,0.874-1.953,1.953v8.398
		c-4.308,0-7.813,3.505-7.813,7.813s3.505,7.813,7.813,7.813v8.398c0,1.079,0.874,1.953,1.953,1.953h8.398
		c0,4.308,3.505,7.813,7.813,7.813s7.813-3.505,7.813-7.813h8.398c1.079,0,1.953-0.874,1.953-1.953v-7.422
		c0-1.079-0.874-1.953-1.953-1.953s-1.953,0.874-1.953,1.953v5.469h-8.758c-0.635,0-1.23,0.309-1.596,0.828
		c-0.366,0.519-0.457,1.183-0.243,1.781c0.165,0.464,0.246,0.888,0.246,1.297c0,2.154-1.752,3.906-3.906,3.906
		s-3.906-1.752-3.906-3.906c0-0.409,0.08-0.833,0.246-1.297c0.213-0.598,0.122-1.262-0.243-1.781
		c-0.366-0.519-0.961-0.828-1.596-0.828h-8.758v-8.758c0-0.635-0.309-1.23-0.828-1.596c-0.519-0.366-1.183-0.457-1.781-0.243
		c-0.464,0.165-0.888,0.246-1.297,0.246c-2.154,0-3.906-1.752-3.906-3.906s1.752-3.906,3.906-3.906c0.409,0,0.833,0.08,1.297,0.246
		c0.598,0.214,1.263,0.122,1.781-0.243c0.519-0.366,0.828-0.961,0.828-1.596v-8.758h6.445c0,4.308,3.505,7.813,7.813,7.813
		s7.813-3.505,7.813-7.813h6.445v5.469c0,1.079,0.874,1.953,1.953,1.953s1.953-0.874,1.953-1.953v-7.422
		c0-1.079-0.874-1.953-1.953-1.953H79.523c-0.635,0-1.23,0.309-1.596,0.828c-0.366,0.519-0.457,1.183-0.243,1.781
		c0.165,0.464,0.246,0.888,0.246,1.297c0,2.154-1.752,3.906-3.906,3.906s-3.906-1.752-3.906-3.906c0-0.409,0.08-0.833,0.246-1.297
		C70.576,57.87,70.486,57.206,70.12,56.687z"/>
</g>
</svg>
