<?xml version="1.0" encoding="utf-8"?>
<!-- Generator: Adobe Illustrator 24.0.2, SVG Export Plug-In . SVG Version: 6.00 Build 0)  -->
<svg version="1.1" id="Layer_1" xmlns="http://www.w3.org/2000/svg" xmlns:xlink="http://www.w3.org/1999/xlink" x="0px" y="0px"
	 viewBox="0 0 100 99.583" enable-background="new 0 0 100 99.583" xml:space="preserve" height="70" width="70">
<g id="XMLID_1_">
	<path fill="#156BA3" d="M100,44.167v28.75c0-1.25-0.833-2.083-2.083-2.083h-2.083V44.167c0-1.25,0.833-2.083,2.083-2.083
		C99.167,42.083,100,42.917,100,44.167z"/>
	<path fill="#156BA3" d="M97.917,70.833c1.25,0,2.083,0.833,2.083,2.083s-0.833,2.083-2.083,2.083h-2.083v-4.167L97.917,70.833
		L97.917,70.833z"/>
	<path fill="#156BA3" d="M95.833,70.833V75H56.25c1.25,0,2.083-0.833,2.083-2.083v-2.083L95.833,70.833L95.833,70.833z"/>
	<path fill="#156BA3" d="M93.75,87.5H60.833c-0.417-1.25-0.417-2.083-0.417-2.083c0-1.25-0.833-2.083-2.083-2.083H93.75
		c1.25,0,2.083-0.833,2.083-2.083V75h2.083c1.25,0,2.083-0.833,2.083-2.083v8.333C100,84.583,97.083,87.5,93.75,87.5z"/>
	<path fill="#156BA3" d="M54.167,72.917v-2.083h4.167v2.083c0,1.25-0.833,2.083-2.083,2.083S54.167,74.167,54.167,72.917z"/>
	<path fill="#156BA3" d="M56.25,75H27.083c1.25,0,2.083-0.833,2.083-2.083v-2.083h25v2.083C54.167,74.167,55,75,56.25,75z"/>
	<path fill="#FA8503" d="M56.25,33.333c-3.333,0-6.25-2.917-6.25-6.25V18.75V6.25C50,2.917,52.917,0,56.25,0h25
		c3.333,0,6.25,2.917,6.25,6.25v1.667l9.167-7.5C97.083,0,97.917,0,98.75,0.417c0.833,0,1.25,0.833,1.25,1.667V31.25
		c0,0.833-0.417,1.667-1.25,1.667c-0.417,0.417-0.417,0.417-0.833,0.417c-0.417,0-0.833,0-1.25-0.417l-9.167-7.5v1.667
		c0,3.333-2.917,6.25-6.25,6.25L56.25,33.333L56.25,33.333z M53.167,28.083c0,1.25,0.833,2.083,2.083,2.083h27
		c1.25,0,2.083-0.833,2.083-2.083v-7.25c0-0.833,0.417-0.667,1.25-0.667c0.596,0.169,0.667-0.417,1.083,0.417l10.167,8.083v-24
		l-10.167,8.5c-0.417,0.417-0.667,0.417-1.083,0.417c-0.833-0.417-1.25-0.25-1.25-1.083V5.25c0-1.25-0.833-2.083-2.083-2.083h-27
		C54,3.167,53.167,4,53.167,5.25V28.083z"/>
	<path fill="#156BA3" d="M39.167,87.5c0.417-1.25,0.417-2.083,0.417-2.083c0-1.25,0.833-2.083,2.083-2.083h16.667
		c1.25,0,2.083,0.833,2.083,2.083c0,0,0,0.833,0.417,2.083h-4.167H43.75H39.167z"/>
	<path fill="#156BA3" d="M37.5,45.833c0,2.5,1.667,4.167,4.167,4.167s4.167-1.667,4.167-4.167s-1.667-4.167-4.167-4.167
		S37.5,43.333,37.5,45.833z M41.667,54.167c-4.583,0-8.333-3.75-8.333-8.333s3.75-8.333,8.333-8.333S50,41.25,50,45.833
		S46.25,54.167,41.667,54.167z"/>
	<path fill="#156BA3" d="M33.75,96.25c3.75-3.333,5-6.667,5.417-8.75h4.167c-0.417,2.083-1.25,5-3.75,8.333H60
		c-2.5-3.333-3.333-6.25-3.75-8.333h4.167c0.417,2.083,1.667,5.417,5.417,8.75c0.417,0.417,0.833,1.667,0.417,2.083
		c-0.417,0.833-1.25,1.25-2.083,1.25H35c-0.833,0-1.667-0.417-2.083-1.25C33.333,97.917,33.333,97.083,33.75,96.25L33.75,96.25z"/>
	<path fill="#156BA3" d="M29.167,70.833v2.083c0,1.25-0.833,2.083-2.083,2.083C25.833,75,25,74.167,25,72.917v-2.083L29.167,70.833
		L29.167,70.833z"/>
	<path fill="#156BA3" d="M47.917,62.5h-12.5c-3.333,0-6.25,2.917-6.25,6.25v2.083H25V68.75c0-5.833,4.583-10.417,10.417-10.417h12.5
		c5.833,0,10.417,4.583,10.417,10.417v2.083h-4.167V68.75C54.167,65.417,51.25,62.5,47.917,62.5z"/>
	<path fill="#156BA3" d="M27.083,75H4.167v-4.167H25v2.083C25,74.167,25.833,75,27.083,75z"/>
	<path fill="#156BA3" d="M4.167,70.833V75H2.083C0.833,75,0,74.167,0,72.917s0.833-2.083,2.083-2.083L4.167,70.833L4.167,70.833z"/>
	<path fill="#156BA3" d="M6.25,20.833c-1.25,0-2.083,0.833-2.083,2.083v47.917H2.083C0.833,70.833,0,71.667,0,72.917v-50
		c0-3.333,2.917-6.25,6.25-6.25h33.333c1.25,0,2.083,0.833,2.083,2.083s-0.833,2.083-2.083,2.083H6.25z"/>
	<path fill="#156BA3" d="M6.25,83.333h35.417c-1.25,0-2.083,0.833-2.083,2.083c0,0,0,0.833-0.417,2.083H6.25
		C2.917,87.5,0,84.583,0,81.25v-8.333C0,74.167,0.833,75,2.083,75h2.083v6.25C4.167,82.5,5,83.333,6.25,83.333L6.25,83.333z"/>
</g>
</svg>
