<svg xmlns="http://www.w3.org/2000/svg" viewBox="0 0 100 100" width="52" height="52"><style>.a{fill:#F6851F;}</style><path d="M25 45c-3.7 0-6.7 3-6.7 6.7s3 6.7 6.7 6.7 6.7-3 6.7-6.7S28.7 45 25 45zM25 55c-1.8 0-3.3-1.5-3.3-3.3s1.5-3.3 3.3-3.3 3.3 1.5 3.3 3.3C28.3 53.5 26.8 55 25 55z" class="a"/><path d="M65.5 43.3h27.8c3.7 0 6.7-3 6.7-6.7V13.3c0-3.7-3-6.7-6.7-6.7H61.7v-5C61.7 0.7 60.9 0 60 0H1.7C0.8 0 0 0.7 0 1.6c0 0 0 0 0 0v85c0 0.7 0.5 1.4 1.1 1.6l35 11.7c0.2 0.1 0.3 0.1 0.5 0.1 0.9 0 1.7-0.7 1.7-1.7v-10h5.9c1.2 2.1 3.4 3.3 5.7 3.3h43.3c3.7 0 6.7-3 6.7-6.7V68.3c0-3.7-3-6.7-6.7-6.7H65.5l-3.8-2.6V45.9L65.5 43.3zM93.3 10c1.8 0 3.3 1.5 3.3 3.3V20h-50v-6.7C46.7 11.5 48.2 10 50 10H93.3zM35 96L3.3 85.5V4L35 14.5V96L35 96zM43.3 68.3V85h-5V13.3c0-0.7-0.5-1.4-1.1-1.6l-25.3-8.4h46.4v3.3H50c-3.7 0-6.7 3-6.7 6.7v23.3c0 3.7 3 6.7 6.7 6.7h3.3v5C53.3 49.3 54.1 50 55 50c0.3 0 0.7-0.1 0.9-0.3l2.4-1.6v8.8l-2.4-1.6c-0.8-0.5-1.8-0.3-2.3 0.5 -0.2 0.3-0.3 0.6-0.3 0.9v5H50C46.3 61.7 43.3 64.7 43.3 68.3zM64.1 64.7C64.3 64.9 64.7 65 65 65h28.3c1.8 0 3.3 1.5 3.3 3.3V85c0 1.8-1.5 3.3-3.3 3.3H50c-1.8 0-3.3-1.5-3.3-3.3V68.3C46.7 66.5 48.2 65 50 65h5c0.9 0 1.7-0.7 1.7-1.7V59.8L64.1 64.7zM56.7 45.2v-3.6C56.7 40.7 55.9 40 55 40h-5c-1.8 0-3.3-1.5-3.3-3.3V23.3h50v13.3c0 1.8-1.5 3.3-3.3 3.3H65c-0.3 0-0.7 0.1-0.9 0.3L56.7 45.2z" fill="#146CA4"/><rect x="51.7" y="33.3" width="40" height="3.3" class="a"/><rect x="55" y="26.7" width="3.3" height="3.3" class="a"/><rect x="61.7" y="26.7" width="30" height="3.3" class="a"/><rect x="50" y="13.3" width="3.3" height="3.3" class="a"/><rect x="56.7" y="13.3" width="3.3" height="3.3" class="a"/><rect x="63.3" y="13.3" width="3.3" height="3.3" class="a"/><path d="M67.3 74.3l-3.3-3.3 -4.7 4.7c-0.9 0.9-0.9 2.4 0 3.3l4.7 4.7 3.3-3.3 -3-3L67.3 74.3z" class="a"/><path d="M86 75.7l-4.7-4.7 -3.3 3.3 3 3 -3 3 3.3 3.3 4.7-4.7C86.9 78.1 86.9 76.6 86 75.7z" class="a"/><rect x="65.3" y="75" transform="matrix(0.3164 -0.9486 0.9486 0.3164 -23.6875 121.7918)" width="14.8" height="4.7" class="a"/></svg>
