<?xml version="1.0" encoding="utf-8"?>
<!-- Generator: Adobe Illustrator 24.0.2, SVG Export Plug-In . SVG Version: 6.00 Build 0)  -->
<svg version="1.1" id="Layer_1" xmlns="http://www.w3.org/2000/svg" xmlns:xlink="http://www.w3.org/1999/xlink" x="0px" y="0px"
	 viewBox="0 0 100 96.667" enable-background="new 0 0 100 96.667" xml:space="preserve" height="70" width="70">
<g id="Out_line">
	<path fill="#FA8503" d="M76.667,96.667c-0.442,0.001-0.866-0.175-1.179-0.488l-6.765-6.766c-1.752,3.235-5.794,4.437-9.029,2.686
		c-3.235-1.752-4.437-5.794-2.686-9.029c0.616-1.137,1.549-2.07,2.686-2.686l-5.872-5.872c-0.651-0.651-0.651-1.706,0-2.357
		l6.766-6.765c-3.235-1.752-4.437-5.794-2.686-9.029c1.752-3.235,5.794-4.437,9.029-2.686c1.137,0.616,2.07,1.549,2.686,2.686
		l5.872-5.872c0.651-0.651,1.706-0.651,2.357,0l21.667,21.667c0.651,0.651,0.651,1.706,0,2.357L77.845,96.179
		C77.533,96.492,77.109,96.667,76.667,96.667z M67.858,84.525c0.442,0,0.866,0.175,1.179,0.488l7.63,7.63l19.31-19.31l-19.31-19.31
		l-6.736,6.736c-0.651,0.651-1.706,0.651-2.357,0c-0.332-0.332-0.509-0.789-0.486-1.258c-0.017-1.838-1.52-3.315-3.359-3.299
		c-1.839,0.017-3.315,1.52-3.299,3.359c0.016,1.814,1.482,3.281,3.295,3.299c0.919-0.046,1.702,0.662,1.748,1.581
		c0.024,0.47-0.153,0.929-0.486,1.262l-7.63,7.63l6.736,6.736c0.651,0.651,0.651,1.706,0,2.357
		c-0.332,0.332-0.789,0.509-1.258,0.486c-1.838,0.017-3.315,1.52-3.299,3.359c0.017,1.839,1.52,3.315,3.359,3.299
		c1.814-0.016,3.281-1.482,3.299-3.295c-0.046-0.919,0.662-1.702,1.581-1.748C67.802,84.526,67.83,84.525,67.858,84.525
		L67.858,84.525z M66.206,86.409l0,0.001L66.206,86.409z M66.205,86.401l0.001,0.008L66.205,86.401z M66.205,86.399l0,0.001
		L66.205,86.399z M62.72,82.903L62.72,82.903z M62.717,82.903l0.001,0L62.717,82.903z M62.713,82.902l0.003,0L62.713,82.902z
		 M63.59,62.873l-0.003,0L63.59,62.873z M63.594,62.872l-0.003,0L63.594,62.872z M63.601,62.871l-0.007,0.001L63.601,62.871z
		 M63.604,62.871l-0.003,0L63.604,62.871z M63.606,62.871L63.606,62.871z M67.097,59.384L67.097,59.384z M67.097,59.382
		L67.097,59.382z"/>
	<path fill="#156BA3" d="M91.667,0h-90C0.746,0,0,0.746,0,1.666c0,0,0,0.001,0,0.001v90c0,0.92,0.746,1.666,1.666,1.667
		c0,0,0.001,0,0.001,0H55V90H33.333v-9.608c-0.001-0.921-0.749-1.667-1.67-1.666c-0.409,0-0.804,0.151-1.109,0.424
		c-1.371,1.228-3.479,1.112-4.707-0.26c-1.228-1.371-1.112-3.479,0.26-4.707c1.266-1.133,3.181-1.133,4.447,0
		c0.687,0.614,1.741,0.555,2.355-0.132c0.273-0.305,0.424-0.7,0.424-1.109v-9.608h9.608c0.921-0.001,1.667-0.749,1.666-1.67
		c0-0.409-0.151-0.804-0.424-1.109c-1.228-1.371-1.112-3.479,0.26-4.707c1.372-1.228,3.479-1.112,4.707,0.26
		c1.133,1.266,1.133,3.181,0,4.447c-0.614,0.687-0.555,1.741,0.132,2.355c0.305,0.273,0.7,0.424,1.109,0.424H55V60h-1.877
		c0.139-0.545,0.21-1.105,0.21-1.667c0-3.682-2.985-6.667-6.667-6.667c-3.682,0-6.667,2.985-6.667,6.667
		C40,58.895,40.071,59.455,40.21,60h-6.877v-6.877c0.545,0.139,1.105,0.21,1.667,0.21c3.682,0,6.667-2.985,6.667-6.667
		C41.667,42.985,38.682,40,35,40c-0.562,0.001-1.122,0.071-1.667,0.21v-6.877h9.608c0.921-0.001,1.667-0.749,1.666-1.67
		c0-0.409-0.151-0.804-0.424-1.109c-1.228-1.371-1.112-3.479,0.26-4.707c1.372-1.228,3.479-1.112,4.707,0.26
		c1.133,1.266,1.133,3.181,0,4.447c-0.614,0.687-0.555,1.741,0.132,2.355c0.305,0.273,0.7,0.424,1.109,0.424H60v9.608
		c0.001,0.921,0.749,1.667,1.67,1.666c0.409,0,0.804-0.151,1.109-0.424c1.372-1.227,3.478-1.11,4.705,0.261
		c1.131,1.265,1.132,3.178,0.001,4.443l2.481,2.225c2.456-2.742,2.224-6.957-0.519-9.412C68.225,40.605,66.641,40,65,40
		c-0.562,0.001-1.122,0.071-1.667,0.21v-6.877h6.877C70.071,33.878,70,34.438,70,35c0,3.682,2.985,6.667,6.667,6.667
		s6.667-2.985,6.667-6.667c-0.001-0.562-0.071-1.122-0.21-1.667H90v25h3.333V1.667C93.334,0.746,92.588,0,91.667,0
		C91.667,0,91.667,0,91.667,0z M30,70.21C29.455,70.071,28.895,70,28.333,70c-3.682,0-6.667,2.985-6.667,6.667
		s2.985,6.667,6.667,6.667c0.562-0.001,1.122-0.071,1.667-0.21V90H3.333V63.333h6.877C10.071,63.878,10.001,64.438,10,65
		c0,3.682,2.985,6.667,6.667,6.667s6.667-2.985,6.667-6.667c-0.001-0.562-0.071-1.122-0.21-1.667H30V70.21z M35,43.333
		c1.841-0.002,3.335,1.49,3.336,3.331c0.002,1.841-1.49,3.335-3.331,3.336c-0.821,0.001-1.614-0.302-2.226-0.85
		c-0.687-0.614-1.741-0.555-2.355,0.132C30.151,49.587,30,49.982,30,50.392V60h-9.608c-0.921,0.001-1.667,0.749-1.666,1.67
		c0,0.409,0.151,0.804,0.424,1.109c1.228,1.371,1.112,3.479-0.26,4.707c-1.371,1.228-3.479,1.112-4.707-0.26
		c-1.133-1.266-1.133-3.181,0-4.447c0.614-0.687,0.555-1.741-0.132-2.355C13.746,60.151,13.351,60,12.942,60H3.333V33.333h9.608
		c0.921-0.001,1.667-0.749,1.666-1.67c0-0.409-0.151-0.804-0.424-1.109c-1.228-1.371-1.112-3.479,0.26-4.707
		c1.371-1.228,3.479-1.112,4.707,0.26c1.133,1.266,1.133,3.181,0,4.447c-0.614,0.687-0.555,1.741,0.132,2.355
		c0.305,0.273,0.7,0.424,1.109,0.424H30v9.608c0.001,0.921,0.749,1.667,1.67,1.666c0.409,0,0.804-0.151,1.109-0.424
		C33.389,43.636,34.18,43.333,35,43.333z M32.779,19.15c-0.687-0.614-1.741-0.555-2.355,0.132C30.151,19.587,30,19.982,30,20.392V30
		h-6.877c0.139-0.545,0.21-1.105,0.21-1.667c0-3.682-2.985-6.667-6.667-6.667S10,24.651,10,28.333
		c0.001,0.562,0.071,1.122,0.21,1.667H3.333V3.333H30v9.608c0.001,0.921,0.749,1.667,1.67,1.666c0.409,0,0.804-0.151,1.109-0.424
		c1.371-1.228,3.479-1.112,4.707,0.26s1.112,3.479-0.26,4.707C35.961,20.283,34.045,20.283,32.779,19.15L32.779,19.15z
		 M62.779,19.15c-0.687-0.614-1.741-0.555-2.355,0.132C60.151,19.588,60,19.982,60,20.392V30h-6.877
		c0.139-0.545,0.21-1.105,0.21-1.667c0-3.682-2.985-6.667-6.667-6.667c-3.682,0-6.667,2.985-6.667,6.667
		C40,28.895,40.071,29.455,40.21,30h-6.877v-6.877c0.545,0.139,1.105,0.21,1.667,0.21c3.682,0,6.667-2.985,6.667-6.667
		S38.682,10,35,10c-0.562,0.001-1.122,0.071-1.667,0.21V3.333H60v9.608c0.001,0.921,0.749,1.667,1.67,1.666
		c0.409,0,0.804-0.151,1.109-0.424c1.371-1.228,3.479-1.112,4.707,0.26s1.112,3.479-0.26,4.707
		C65.96,20.283,64.045,20.283,62.779,19.15L62.779,19.15z M90,30h-9.608c-0.921,0.001-1.667,0.749-1.666,1.67
		c0,0.409,0.151,0.804,0.424,1.109c1.228,1.371,1.112,3.479-0.26,4.707c-1.371,1.228-3.479,1.112-4.707-0.26
		c-1.133-1.266-1.133-3.181,0-4.447c0.614-0.687,0.555-1.741-0.132-2.355C73.746,30.151,73.351,30,72.942,30h-9.608v-6.877
		c0.545,0.139,1.105,0.21,1.667,0.21c3.682,0,6.667-2.985,6.667-6.667S68.682,10,65,10c-0.562,0.001-1.122,0.071-1.667,0.21V3.333
		H90V30z"/>
</g>
</svg>
