<svg xmlns="http://www.w3.org/2000/svg" viewBox="0 0 100 100" width="52" height="52"><style>.a{fill:#156BA3;}.b{fill:#FA8503;}</style><path d="M17.6 77.3c-1.4 0-2.7 0.3-3.9 1C7.4 70.3 3.9 60.3 3.9 50 3.9 24.6 24.6 3.9 50 3.9c3.1 0 6.2 0.3 9.2 0.9 1.1 0.2 2.1-0.5 2.3-1.5s-0.5-2.1-1.5-2.3C56.7 0.3 53.3 0 50 0 36.6 0 24.1 5.2 14.6 14.6S0 36.6 0 50c0 11.2 3.8 22.2 10.8 31 -0.9 1.3-1.4 2.9-1.4 4.6 0 2.2 0.9 4.3 2.4 5.8 1.5 1.6 3.6 2.4 5.8 2.4s4.3-0.9 5.8-2.4c1.6-1.5 2.4-3.6 2.4-5.8 0-2.2-0.9-4.3-2.4-5.8C21.8 78.2 19.8 77.3 17.6 77.3zM20.6 88.6c-0.8 0.8-1.9 1.3-3 1.3s-2.2-0.4-3-1.3 -1.3-1.9-1.3-3c0-1.1 0.4-2.2 1.3-3 0.8-0.8 1.9-1.3 3-1.3s2.2 0.4 3 1.3c0.8 0.8 1.3 1.9 1.3 3C21.9 86.7 21.4 87.8 20.6 88.6z" class="a"/><path d="M89.2 19c2.1-3.2 1.8-7.5-1-10.3 -1.5-1.5-3.6-2.4-5.8-2.4s-4.3 0.9-5.8 2.4c-1.5 1.6-2.4 3.6-2.4 5.8s0.9 4.3 2.4 5.8 3.6 2.4 5.8 2.4c1.4 0 2.7-0.3 3.9-1 6.3 8.1 9.7 18.1 9.7 28.3 0 25.4-20.7 46.1-46.1 46.1 -3.1 0-6.1-0.3-9.1-0.9 -1.1-0.2-2.1 0.5-2.3 1.5 -0.2 1.1 0.5 2.1 1.5 2.3C43.4 99.7 46.7 100 50 100c13.4 0 25.9-5.2 35.4-14.6S100 63.4 100 50C100 38.8 96.2 27.8 89.2 19zM79.4 17.5c-0.8-0.8-1.3-1.9-1.3-3 0-1.1 0.4-2.2 1.3-3 0.8-0.8 1.9-1.3 3-1.3s2.2 0.4 3 1.3c1.7 1.7 1.7 4.4 0 6.1 -0.8 0.8-1.9 1.3-3 1.3C81.3 18.8 80.2 18.3 79.4 17.5z" class="a"/><path d="M41.9 83.6c0 1.1 0.9 2 2 2h12.2c1.1 0 2-0.9 2-2v-3.8c2.6-0.7 5-1.7 7.3-3l2.7 2.7c0.4 0.4 0.9 0.6 1.4 0.6 0.5 0 1-0.2 1.4-0.6l8.6-8.6c0.8-0.8 0.8-2 0-2.8l-2.7-2.7c1.3-2.3 2.3-4.8 3-7.3h3.8c1.1 0 2-0.9 2-2V43.9c0-1.1-0.9-2-2-2h-3.8c-0.7-2.6-1.7-5-3-7.3l2.7-2.7c0.4-0.4 0.6-0.9 0.6-1.4 0-0.5-0.2-1-0.6-1.4l-8.6-8.6c-0.8-0.8-2-0.8-2.8 0l-2.7 2.7c-2.3-1.3-4.8-2.3-7.3-3v-3.8c0-1.1-0.9-2-2-2H43.9c-1.1 0-2 0.9-2 2v3.8c-2.6 0.7-5 1.7-7.3 3l-2.7-2.7c-0.8-0.8-2-0.8-2.8 0l-8.6 8.6c-0.4 0.4-0.6 0.9-0.6 1.4s0.2 1 0.6 1.4l2.7 2.7c-1.3 2.3-2.3 4.8-3 7.3H16.4c-1.1 0-2 0.9-2 2L14.5 56.1c0 0.5 0.2 1 0.6 1.4s0.9 0.6 1.4 0.6h3.8c0.7 2.6 1.7 5 3 7.3l-2.7 2.7c-0.8 0.8-0.8 2 0 2.8l8.6 8.6c0.4 0.4 0.9 0.6 1.4 0.6h0c0.5 0 1-0.2 1.4-0.6l2.7-2.7c2.3 1.3 4.8 2.3 7.3 3V83.6zM35.4 72.7c-0.8-0.5-1.8-0.4-2.4 0.3l-2.4 2.4 -5.9-5.9 2.4-2.4c0.7-0.7 0.8-1.7 0.3-2.4 -1.8-2.7-3-5.7-3.7-8.9 -0.2-0.9-1-1.5-1.9-1.5h-3.4l0-8.3h3.4c0.9 0 1.7-0.6 1.9-1.5 0.7-3.2 1.9-6.2 3.7-8.9 0.5-0.8 0.4-1.8-0.3-2.4l-2.4-2.4 5.9-5.9 2.4 2.4c0.7 0.7 1.7 0.8 2.4 0.3 2.7-1.8 5.7-3 8.9-3.7 0.9-0.2 1.5-1 1.5-1.9v-3.3h8.3v3.3c0 0.9 0.6 1.7 1.5 1.9 3.2 0.7 6.2 1.9 8.9 3.7 0.8 0.5 1.8 0.4 2.4-0.3l2.4-2.4 5.9 5.9 -2.4 2.4c-0.7 0.7-0.8 1.7-0.3 2.4 1.8 2.7 3 5.7 3.7 8.9 0.2 0.9 1 1.5 1.9 1.5h3.4v8.3h-3.4c-0.9 0-1.7 0.6-1.9 1.5 -0.7 3.2-1.9 6.2-3.7 8.9 -0.5 0.8-0.4 1.8 0.3 2.4l2.4 2.4 -5.9 5.9 -2.4-2.4c-0.7-0.7-1.7-0.8-2.4-0.3 -2.7 1.8-5.7 3-8.9 3.7 -0.9 0.2-1.5 1-1.5 1.9v3.4h-8.3v-3.4c0-0.9-0.6-1.7-1.5-1.9C41.1 75.7 38.1 74.4 35.4 72.7z" class="b"/><path d="M66.1 50c0-8.9-7.2-16.1-16.1-16.1S33.9 41.1 33.9 50 41.1 66.1 50 66.1 66.1 58.9 66.1 50zM37.8 50c0-6.7 5.5-12.2 12.2-12.2S62.2 43.3 62.2 50 56.7 62.2 50 62.2 37.8 56.7 37.8 50z" class="a"/><path d="M68 7.4c0.5 0 1-0.2 1.4-0.6 0.4-0.4 0.6-0.9 0.6-1.4 0-0.5-0.2-1-0.6-1.4 -0.4-0.4-0.9-0.6-1.4-0.6 -0.5 0-1 0.2-1.4 0.6 -0.4 0.4-0.6 0.9-0.6 1.4 0 0.5 0.2 1 0.6 1.4C67 7.2 67.5 7.4 68 7.4z" class="b"/><path d="M32.1 92.6c-0.5 0-1 0.2-1.4 0.6s-0.6 0.9-0.6 1.4c0 0.5 0.2 1 0.6 1.4s0.9 0.6 1.4 0.6 1-0.2 1.4-0.6 0.6-0.9 0.6-1.4 -0.2-1-0.6-1.4S32.6 92.6 32.1 92.6z" class="b"/></svg>
