<?xml version="1.0" encoding="utf-8"?>
<!-- Generator: Adobe Illustrator 24.0.2, SVG Export Plug-In . SVG Version: 6.00 Build 0)  -->
<svg version="1.1" id="Layer_1" xmlns="http://www.w3.org/2000/svg" xmlns:xlink="http://www.w3.org/1999/xlink" x="0px" y="0px"
	 viewBox="0 0 100 100" enable-background="new 0 0 100 100" xml:space="preserve" height="70" width="70">
<g>
	<g>
		<path fill="#156BA3" d="M80,53.333c-2.002,0-3.777,0.903-5,2.303c-1.223-1.4-2.998-2.303-5-2.303s-3.777,0.903-5,2.303
			c-1.223-1.4-2.998-2.303-5-2.303c-1.22,0-2.348,0.353-3.333,0.927v-5.187c0.217-0.06,0.435-0.118,0.65-0.183
			c0.165-0.05,0.325-0.11,0.488-0.163c0.502-0.165,0.997-0.342,1.485-0.537c0.132-0.053,0.262-0.108,0.392-0.163
			c0.563-0.237,1.117-0.492,1.66-0.768c0.03-0.015,0.06-0.03,0.088-0.045c2.315-1.19,4.448-2.728,6.307-4.598
			c0.053-0.055,0.073-0.13,0.118-0.19C72.294,37.865,75,31.663,75,25c0-6.907-2.753-13.333-7.753-18.1
			c-4.998-4.762-11.56-7.2-18.477-6.87C36.493,0.62,26.327,10.266,25.125,22.471c-0.753,7.647,2.028,14.887,7.067,20.028
			c0.03,0.035,0.04,0.083,0.073,0.117c0.113,0.115,0.237,0.218,0.352,0.33c0.083,0.082,0.17,0.158,0.255,0.24
			c0.42,0.395,0.852,0.775,1.297,1.14c0.133,0.108,0.265,0.218,0.4,0.325c0.447,0.35,0.903,0.683,1.372,1.002
			c0.117,0.08,0.228,0.163,0.347,0.242c0.578,0.378,1.168,0.735,1.775,1.065c0.14,0.077,0.287,0.142,0.428,0.215
			c0.47,0.243,0.947,0.475,1.433,0.69c0.223,0.098,0.45,0.19,0.678,0.282c0.443,0.18,0.893,0.345,1.348,0.5
			c0.218,0.075,0.435,0.152,0.657,0.22c0.242,0.075,0.485,0.143,0.73,0.21v25.235l-5.43-5.43c-1.43-1.428-3.328-2.215-5.348-2.215
			c-4.168,0-7.558,3.39-7.558,7.558c0,2.02,0.787,3.918,2.213,5.345l16.12,16.12v2.643c0,0.922,0.745,1.667,1.667,1.667h38.333
			C84.255,100,85,99.255,85,98.333V92.06l1.492-2.982c0.115-0.23,0.175-0.487,0.175-0.745v-28.34
			C86.667,56.321,83.677,53.333,80,53.333z M32.55,37.786c-3.065-4.19-4.652-9.467-4.108-14.99
			c1.042-10.57,9.85-18.928,20.487-19.437c6.003-0.3,11.687,1.827,16.017,5.953c4.335,4.13,6.722,9.702,6.722,15.687
			c0,4.708-1.557,9.155-4.218,12.78c-1.583-4.938-5.227-9.028-9.973-11.162C59.04,24.853,60,22.54,60,20c0-5.515-4.485-10-10-10
			s-10,4.485-10,10c0,2.54,0.96,4.853,2.525,6.62C37.777,28.753,34.132,32.845,32.55,37.786z M56.667,20
			c0,2.46-1.353,4.588-3.342,5.743c-0.008,0.005-0.018,0.005-0.028,0.01c-0.463,0.267-0.942,0.463-1.425,0.612
			c-0.088,0.027-0.173,0.06-0.265,0.082c-0.18,0.047-0.362,0.08-0.543,0.112c-0.302,0.048-0.607,0.087-0.92,0.093
			c-0.097,0.002-0.193,0.002-0.292,0c-0.313-0.007-0.618-0.043-0.92-0.093c-0.182-0.032-0.363-0.063-0.543-0.112
			c-0.09-0.023-0.175-0.057-0.265-0.082c-0.483-0.148-0.962-0.347-1.425-0.612c-0.008-0.005-0.018-0.005-0.027-0.01
			C44.687,24.59,43.334,22.46,43.334,20c0-3.677,2.99-6.667,6.667-6.667S56.667,16.323,56.667,20z M43.334,40v5.608
			c-0.695-0.223-1.372-0.492-2.037-0.782c-0.188-0.083-0.37-0.175-0.555-0.263c-0.47-0.222-0.93-0.458-1.382-0.713
			c-0.213-0.12-0.425-0.242-0.633-0.37c-0.432-0.263-0.852-0.547-1.265-0.84c-0.182-0.13-0.37-0.25-0.547-0.385
			c-0.537-0.407-1.053-0.84-1.552-1.298c-0.05-0.045-0.093-0.095-0.143-0.142c0.947-5.557,5.02-10.182,10.435-11.823
			C46.97,29.631,48.442,30,50,30s3.03-0.368,4.347-1.008c5.403,1.637,9.468,6.247,10.427,11.79c-0.225,0.212-0.445,0.428-0.678,0.63
			c-0.048,0.042-0.098,0.082-0.148,0.123c-0.793,0.672-1.635,1.288-2.52,1.845c-0.038,0.025-0.077,0.053-0.115,0.077
			c-0.32,0.198-0.653,0.375-0.985,0.557c-0.312,0.168-0.625,0.333-0.943,0.487c-0.272,0.132-0.545,0.262-0.823,0.382
			c-0.583,0.25-1.175,0.485-1.78,0.683c-0.038,0.013-0.073,0.028-0.112,0.042V40c0-3.677-2.99-6.667-6.667-6.667
			C46.325,33.333,43.334,36.323,43.334,40z M83.334,87.94l-1.492,2.982c-0.115,0.23-0.175,0.487-0.175,0.745v5h-35V95
			c0-0.443-0.175-0.867-0.488-1.178L29.57,77.213c-0.797-0.797-1.237-1.858-1.237-2.988c0-2.328,1.897-4.225,4.225-4.225
			c1.13,0,2.19,0.44,2.988,1.237l8.275,8.275c0.478,0.478,1.193,0.623,1.817,0.362c0.623-0.257,1.028-0.867,1.028-1.54v-30.55V40
			c0-1.838,1.495-3.333,3.333-3.333s3.333,1.495,3.333,3.333v7.783V60v10h3.333V60c0-1.838,1.495-3.333,3.333-3.333
			c1.838,0,3.333,1.495,3.333,3.333v10h3.333V60c0-1.838,1.495-3.333,3.333-3.333s3.333,1.495,3.333,3.333v10h3.333V60
			c0-1.838,1.495-3.333,3.333-3.333s3.333,1.493,3.333,3.327V87.94z"/>
	</g>
</g>
<g>
	<g>
		<path fill="#FA8503" d="M17.035,31.32C18.833,29.79,20,27.54,20,25c0-4.595-3.738-8.333-8.333-8.333S3.333,20.405,3.333,25
			c0,2.54,1.167,4.79,2.965,6.32C2.562,33.266,0,37.17,0,41.666v5c0,0.922,0.745,1.667,1.667,1.667h20
			c0.922,0,1.667-0.745,1.667-1.667v-5C23.333,37.17,20.772,33.266,17.035,31.32z M11.667,20c2.757,0,5,2.243,5,5s-2.243,5-5,5
			s-5-2.243-5-5S8.91,20,11.667,20z M20,45H3.333v-3.333c0-4.595,3.738-8.333,8.333-8.333S20,37.071,20,41.666V45z"/>
	</g>
</g>
<g>
	<g>
		<path fill="#FA8503" d="M93.702,29.653c1.798-1.53,2.965-3.78,2.965-6.32c0-4.595-3.738-8.333-8.333-8.333
			C83.739,15,80,18.738,80,23.333c0,2.54,1.167,4.79,2.965,6.32C79.229,31.6,76.667,35.503,76.667,40v5
			c0,0.922,0.745,1.667,1.667,1.667h20c0.922,0,1.667-0.745,1.667-1.667v-5C100,35.503,97.439,31.6,93.702,29.653z M88.334,18.333
			c2.757,0,5,2.243,5,5s-2.243,5-5,5c-2.757,0-5-2.243-5-5S85.577,18.333,88.334,18.333z M96.667,43.333H80V40
			c0-4.595,3.738-8.333,8.333-8.333c4.595,0,8.333,3.738,8.333,8.333V43.333z"/>
	</g>
</g>
</svg>
