<?xml version="1.0" encoding="utf-8"?>
<!-- Generator: Adobe Illustrator 24.0.2, SVG Export Plug-In . SVG Version: 6.00 Build 0)  -->
<svg version="1.1" id="Layer_1" xmlns="http://www.w3.org/2000/svg" xmlns:xlink="http://www.w3.org/1999/xlink" x="0px" y="0px"
	 viewBox="0 0 100 100" enable-background="new 0 0 100 100" xml:space="preserve" height="70" width="70">
<g>
	<g>
		<g>
			<path fill="#156BA3" d="M73.167,59.283c-1.57-3.273-7.187-7.817-12.613-12.207c-3.027-2.447-5.887-4.76-7.71-6.583
				c-0.457-0.46-1.14-0.607-1.743-0.39c-1.123,0.407-1.817,0.72-2.363,0.963c-0.833,0.373-1.113,0.5-2.237,0.613
				c-0.497,0.05-0.943,0.317-1.22,0.73c-2.357,3.523-4.797,3.223-6.427,2.677c-0.52-0.173-0.613-0.397-0.663-0.61
				c-0.35-1.463,1.407-4.87,3.683-7.147c5.417-5.42,8.21-6.777,14.11-4.14c6.693,2.993,13.4,5.337,13.467,5.36
				c0.877,0.303,1.82-0.157,2.123-1.027c0.3-0.87-0.157-1.82-1.027-2.123c-0.067-0.023-6.64-2.32-13.2-5.257
				c-7.643-3.417-11.837-1.167-17.827,4.827c-2.28,2.28-5.377,6.893-4.577,10.277c0.343,1.44,1.357,2.507,2.863,3.003
				c3.777,1.247,7.223,0.053,9.79-3.353c1.06-0.163,1.637-0.403,2.503-0.793c0.313-0.14,0.68-0.303,1.167-0.5
				c1.907,1.79,4.48,3.873,7.19,6.063c4.9,3.963,10.457,8.457,11.707,11.057c0.617,1.283-0.047,2.12-0.497,2.503
				c-0.66,0.567-1.563,0.747-2.053,0.403c-0.54-0.37-1.243-0.393-1.8-0.06c-0.56,0.333-0.873,0.963-0.803,1.61
				c0.113,1.06-0.857,1.667-1.277,1.877c-1.067,0.54-2.18,0.447-2.597,0.06c-0.467-0.433-1.137-0.56-1.73-0.34
				c-0.593,0.223-1.007,0.77-1.067,1.403c-0.1,1.093-0.91,2.143-1.967,2.553c-0.51,0.193-1.25,0.31-1.913-0.297
				c-0.413-0.373-0.987-0.517-1.523-0.387c-0.543,0.133-0.98,0.527-1.17,1.05c-0.063,0.167-0.207,0.567-1.767,0.567
				c-1.11,0-3.107-0.75-4.083-1.397c-1.17-0.77-8.507-6.243-14.843-11.55c-0.89-0.75-2.43-2.357-3.79-3.777
				c-1.207-1.26-2.31-2.403-2.877-2.883c-0.71-0.6-1.76-0.51-2.35,0.197c-0.593,0.703-0.507,1.757,0.197,2.35
				c0.517,0.437,1.517,1.493,2.62,2.643c1.487,1.553,3.023,3.16,4.057,4.027c6.207,5.197,13.667,10.807,15.153,11.783
				c1.227,0.807,3.87,1.94,5.917,1.94c1.643,0,2.907-0.377,3.783-1.113c1.173,0.457,2.507,0.46,3.79-0.04
				c1.517-0.587,2.763-1.77,3.47-3.203c1.313,0.28,2.817,0.083,4.183-0.603c1.337-0.673,2.303-1.703,2.783-2.907
				c1.327,0.07,2.693-0.4,3.823-1.37C73.747,64.126,74.273,61.58,73.167,59.283z"/>
		</g>
	</g>
	<g>
		<g>
			<path fill="#156BA3" d="M43.333,31.666h-15c-0.92,0-1.667,0.747-1.667,1.667S27.413,35,28.333,35h15
				C44.253,35,45,34.253,45,33.333S44.253,31.666,43.333,31.666z"/>
		</g>
	</g>
	<g>
		<g>
			<path fill="#156BA3" d="M78.05,55.736c-0.517-0.763-1.55-0.973-2.313-0.453l-4.873,3.273c-0.763,0.513-0.967,1.55-0.453,2.313
				c0.323,0.477,0.85,0.737,1.387,0.737c0.317,0,0.64-0.09,0.927-0.283l4.873-3.273C78.36,57.536,78.563,56.5,78.05,55.736z"/>
		</g>
	</g>
	<g>
		<g>
			<path fill="#156BA3" d="M67.703,63.69c-1.193-0.94-6.53-6.403-9.83-9.843c-0.637-0.667-1.693-0.69-2.357-0.05
				c-0.667,0.637-0.687,1.693-0.05,2.357c0.857,0.893,8.413,8.77,10.17,10.157c0.303,0.24,0.67,0.357,1.03,0.357
				c0.49,0,0.98-0.22,1.313-0.637C68.55,65.31,68.427,64.26,67.703,63.69z"/>
		</g>
	</g>
	<g>
		<g>
			<path fill="#156BA3" d="M61.043,67.033c-1.997-1.597-7.013-6.927-8.147-8.16c-0.627-0.68-1.677-0.72-2.357-0.1
				c-0.677,0.623-0.723,1.68-0.1,2.357c0.06,0.063,6.047,6.527,8.52,8.507C59.267,69.88,59.637,70,60,70
				c0.487,0,0.973-0.217,1.303-0.623C61.877,68.656,61.76,67.606,61.043,67.033z"/>
		</g>
	</g>
	<g>
		<g>
			<path fill="#156BA3" d="M54.41,70.39c-2.377-2.003-7.24-7.18-8.19-8.197c-0.63-0.673-1.687-0.71-2.357-0.08
				c-0.673,0.63-0.707,1.683-0.08,2.357c1.367,1.463,6.02,6.397,8.477,8.47c0.313,0.263,0.693,0.393,1.073,0.393
				c0.473,0,0.947-0.203,1.277-0.593C55.203,72.033,55.113,70.983,54.41,70.39z"/>
		</g>
	</g>
	<g>
		<g>
			<path fill="#156BA3" d="M29.48,28.79c-2.857-2.707-14.28-3.583-17.713-3.787c-0.473-0.023-0.91,0.133-1.243,0.45
				C10.19,25.766,10,26.206,10,26.666v30c0,0.92,0.747,1.667,1.667,1.667h10c0.72,0,1.36-0.463,1.583-1.15
				c0.243-0.747,5.987-18.373,6.743-27.04C30.037,29.636,29.85,29.136,29.48,28.79z M20.45,55h-7.117V28.453
				c5.357,0.423,11.137,1.343,13.237,2.363C25.687,38.116,21.69,51.086,20.45,55z"/>
		</g>
	</g>
	<g>
		<g>
			<path fill="#156BA3" d="M88.333,28.333c-13.087,0-20.347,3.35-20.65,3.49c-0.433,0.203-0.757,0.58-0.89,1.037
				c-0.133,0.457-0.067,0.947,0.183,1.353c2.06,3.317,8.51,21.737,9.75,26.23c0.2,0.723,0.857,1.223,1.607,1.223h10
				c0.92,0,1.667-0.747,1.667-1.667v-30C90,29.076,89.253,28.333,88.333,28.333z M86.667,58.333H79.58
				C78,53.186,73.333,39.766,70.73,34.22c2.543-0.863,8.007-2.347,15.937-2.533V58.333z"/>
		</g>
	</g>
</g>
<g>
	<path fill="#FA8503" d="M97.07,0H79.492c-1.618,0-2.93,1.312-2.93,2.93s2.312,1.93,3.93,1.93h14.648v14.648
		c0,1.618,0.312,3.93,1.93,3.93s2.93-1.312,2.93-2.93V2.93C100,1.312,98.688,0,97.07,0z"/>
	<path fill="#FA8503" d="M20.508,0H2.93C1.312,0,0,1.312,0,2.93v17.578c0,1.618,1.312,2.93,2.93,2.93s1.93-2.312,1.93-3.93V4.859
		h14.648c1.618,0,3.93-0.312,3.93-1.93S22.126,0,20.508,0z"/>
	<path fill="#FA8503" d="M19.508,95.141H4.859V80.492c0-1.618-0.312-3.93-1.93-3.93S0,77.874,0,79.492V97.07
		C0,98.688,1.312,100,2.93,100h17.578c1.618,0,2.93-1.312,2.93-2.93S21.126,95.141,19.508,95.141z"/>
	<path fill="#FA8503" d="M97.07,76.563c-1.618,0-1.93,2.312-1.93,3.93v14.648H80.492c-1.618,0-3.93,0.312-3.93,1.93
		s1.312,2.93,2.93,2.93H97.07c1.618,0,2.93-1.312,2.93-2.93V79.492C100,77.874,98.688,76.563,97.07,76.563z"/>
</g>
</svg>
