<svg xmlns="http://www.w3.org/2000/svg" viewBox="0 0 100 100" width="60" height="60"><style>.a{fill:#F6851F;}</style><path d="M99 61.8c-0.6-0.3-1.4-0.1-1.8 0.4L90 69.7V25.2h0l6.8-7.3c0.6-0.7 0.6-1.7-0.1-2.4 0 0 0 0 0 0l-2.4-2.3 3.4-3.7c0.6-0.7 0.6-1.7-0.1-2.4l-7.3-6.8c-0.7-0.6-1.7-0.6-2.4 0.1L76 13.3H18.3C18.3 8.7 14.6 5 10 5H8.3C3.7 5 0 8.7 0 13.3v71.7c0 0.9 0.7 1.7 1.7 1.7h25.2l-3.5 4.2c-0.6 0.7-0.5 1.8 0.2 2.3l7.7 6.4c0.7 0.6 1.8 0.5 2.3-0.2l0 0 8.5-10.2c0.6-0.7 1-1.6 1.1-2.5h30.5L63.8 97.2c-0.6 0.7-0.6 1.7 0.1 2.4 0.3 0.3 0.7 0.5 1.1 0.5h33.3c0.9 0 1.7-0.7 1.7-1.7v-35C100 62.6 99.6 62 99 61.8zM93.2 16.8L90 20.3v-2.5l2-2.2L93.2 16.8zM86.7 16.5v0L72.6 31.8l-4.9-4.5 17-18.3 4.9 4.5 -2.9 3.1H86.7zM69.4 33.4l-3.8 1.1 0.8-3.9L69.4 33.4zM89.2 4l4.9 4.5 -2.3 2.5L86.9 6.5 89.2 4zM8.3 8.3H10c2.8 0 5 2.2 5 5v63.4c-1.4-1.1-3.2-1.7-5-1.7H8.3c-1.8 0-3.6 0.6-5 1.7V13.3C3.3 10.6 5.6 8.3 8.3 8.3zM8.3 78.3H10c2.8 0 5 2.2 5 5H3.3C3.3 80.6 5.6 78.3 8.3 78.3zM39.6 87l-1.1 1.3 -5.1-4.3 1.1-1.3c0.6-0.7 1.6-0.8 2.3-0.2 0 0 0 0 0 0l2.6 2.1c0.7 0.6 0.8 1.6 0.2 2.3 0 0 0 0 0 0V87zM32.2 96l-5.1-4.3 4.3-5.1 5.1 4.3L32.2 96zM42.6 83.3c-0.3-0.5-0.6-0.9-1-1.2l-2.6-2.1c-2.1-1.8-5.3-1.5-7 0.6l-2.3 2.7H18.3V16.7h54.6l-8.8 9.6c-0.1 0.1-0.2 0.3-0.3 0.5 0 0 0 0.1-0.1 0.1 0 0.1 0 0.1-0.1 0.2l-2 9.5c-0.2 0.9 0.4 1.8 1.3 2 0.3 0.1 0.5 0 0.8 0l9.3-2.7c0 0 0.1 0 0.1-0.1 0 0 0.1 0 0.1-0.1 0.2-0.1 0.4-0.2 0.5-0.4l12.8-13.8v51.7L77 83.3H42.6zM96.7 96.7H68.9l27.8-29.2V96.7z" fill="#146CA4"/><path d="M78.5 92.3c0.3 0.6 0.9 1 1.5 1h11.7c0.9 0 1.7-0.7 1.7-1.7V80c0-0.9-0.7-1.7-1.7-1.7 -0.4 0-0.9 0.2-1.2 0.5L78.8 90.5C78.3 91 78.2 91.7 78.5 92.3zM90 84v6h-6L90 84z" class="a"/><path d="M73.3 63.3H61.7V45c0-0.4-0.2-0.9-0.5-1.2l-10-10c-0.7-0.7-1.7-0.7-2.4 0l-10 10c-0.3 0.3-0.5 0.7-0.5 1.2V63.3H26.7c-0.9 0-1.7 0.7-1.7 1.7 0 0.9 0.7 1.7 1.7 1.7h46.7c0.9 0 1.7-0.7 1.7-1.7C75 64.1 74.3 63.3 73.3 63.3zM50 37.4l6 6H44L50 37.4zM41.7 46.7h16.7V63.3H41.7V46.7z" class="a"/><path d="M48.3 26.7h3.3v3.3h-3.3V26.7z" class="a"/><path d="M48.3 70h3.3v3.3h-3.3V70z" class="a"/></svg>
