<?xml version="1.0" encoding="utf-8"?>
<!-- Generator: Adobe Illustrator 24.0.2, SVG Export Plug-In . SVG Version: 6.00 Build 0)  -->
<svg version="1.1" id="Layer_1" xmlns="http://www.w3.org/2000/svg" xmlns:xlink="http://www.w3.org/1999/xlink" x="0px" y="0px"
	 viewBox="0 0 100 100" enable-background="new 0 0 100 100" xml:space="preserve" height="70" width="70">
<g id="Online">
	<path fill="#156BA3" d="M56.667,18.417V5c-0.008-2.758-2.242-4.992-5-5H5C2.242,0.008,0.008,2.242,0,5v90
		c0.008,2.758,2.242,4.992,5,5h46.667c2.758-0.008,4.992-2.242,5-5V81.583c17.443-0.896,30.857-15.763,29.96-33.206
		C85.795,32.188,72.856,19.249,56.667,18.417z M83.25,48.333H69.967c-0.087-4.372-0.628-8.723-1.617-12.983
		c2.63-1.235,5.081-2.821,7.283-4.717C80.169,35.458,82.865,41.723,83.25,48.333L83.25,48.333z M73.217,28.317
		c-1.756,1.498-3.693,2.769-5.767,3.783c-0.996-3.37-2.594-6.533-4.717-9.333C66.58,23.857,70.153,25.748,73.217,28.317z
		 M41.65,35.35c-0.988,4.26-1.53,8.611-1.617,12.983H26.75c0.385-6.611,3.081-12.876,7.617-17.7
		C36.569,32.529,39.02,34.115,41.65,35.35L41.65,35.35z M36.783,28.317c3.064-2.568,6.637-4.46,10.483-5.55
		c-2.123,2.801-3.721,5.963-4.717,9.333C40.477,31.086,38.539,29.815,36.783,28.317z M40.033,51.667
		c0.087,4.372,0.628,8.723,1.617,12.983c-2.63,1.235-5.081,2.821-7.283,4.717c-4.536-4.824-7.232-11.089-7.617-17.7L40.033,51.667z
		 M42.55,67.9c0.996,3.37,2.594,6.533,4.717,9.333c-3.847-1.09-7.419-2.982-10.483-5.55C38.539,70.185,40.477,68.914,42.55,67.9
		L42.55,67.9z M43.367,51.667h23.267c-0.071,3.947-0.534,7.878-1.383,11.733c-6.638-2.312-13.862-2.312-20.5,0
		C43.901,59.544,43.437,55.614,43.367,51.667L43.367,51.667z M43.367,48.333c0.071-3.947,0.534-7.878,1.383-11.733
		c6.638,2.312,13.862,2.312,20.5,0c0.849,3.856,1.313,7.786,1.383,11.733H43.367z M64.383,33.367
		c-6.066,2.178-12.701,2.178-18.767,0c2.267-7.333,5.9-11.7,9.383-11.7S62.117,26.033,64.383,33.367z M44.533,3.333L44.017,5.4
		c-0.184,0.744-0.851,1.266-1.617,1.267H14.267C13.501,6.666,12.834,6.144,12.65,5.4l-0.517-2.067L44.533,3.333z M53.333,95
		c0,0.92-0.746,1.667-1.667,1.667H5c-0.92,0-1.667-0.746-1.667-1.667V5C3.333,4.08,4.08,3.333,5,3.333h3.7l0.717,2.883
		C9.975,8.441,11.974,10,14.267,10H42.4c2.293,0,4.292-1.559,4.85-3.783l0.717-2.883h3.7c0.92,0,1.667,0.746,1.667,1.667v13.417
		C35.89,19.313,22.477,34.18,23.373,51.623c0.832,16.19,13.771,29.129,29.96,29.96V95z M55,78.333c-3.483,0-7.117-4.367-9.383-11.7
		c6.066-2.178,12.701-2.178,18.767,0C62.117,73.967,58.483,78.333,55,78.333L55,78.333z M62.733,77.233
		c2.123-2.801,3.721-5.963,4.717-9.333c2.073,1.014,4.011,2.285,5.767,3.783C70.153,74.252,66.58,76.143,62.733,77.233
		L62.733,77.233z M75.633,69.367c-2.203-1.895-4.653-3.482-7.283-4.717c0.988-4.26,1.53-8.611,1.617-12.983H83.25
		C82.865,58.277,80.169,64.542,75.633,69.367L75.633,69.367z"/>
	<path fill="#156BA3" d="M13.333,90h30v3.333h-30V90z"/>
	<path fill="#156BA3" d="M6.667,90H10v3.333H6.667V90z"/>
	<path fill="#156BA3" d="M46.667,90H50v3.333h-3.333V90z"/>
	<g>
		<path fill="#FA8503" d="M63.325,12.539l1.727-6.44l3.22,0.863l-1.727,6.44L63.325,12.539z"/>
		<path fill="#FA8503" d="M72.729,15.976l3.333-5.773l2.887,1.667l-3.333,5.773L72.729,15.976z"/>
		<path fill="#FA8503" d="M80.917,21.722l4.713-4.713l2.357,2.357l-4.713,4.713L80.917,21.722z"/>
		<path fill="#FA8503" d="M87.361,29.386l5.773-3.333l1.667,2.887l-5.773,3.333L87.361,29.386z"/>
		<path fill="#FA8503" d="M91.609,38.464l6.44-1.727l0.863,3.22l-6.44,1.727L91.609,38.464z"/>
		<path fill="#FA8503" d="M93.333,48.333H100v3.333h-6.667V48.333z"/>
		<path fill="#FA8503" d="M91.611,61.528l0.863-3.22l6.44,1.727l-0.863,3.22L91.611,61.528z"/>
		<path fill="#FA8503" d="M87.363,70.617l1.667-2.887l5.773,3.333l-1.667,2.887L87.363,70.617z"/>
		<path fill="#FA8503" d="M80.909,78.285l2.357-2.357l4.713,4.713l-2.357,2.357L80.909,78.285z"/>
		<path fill="#FA8503" d="M72.722,84.026l2.887-1.667l3.333,5.773L76.056,89.8L72.722,84.026z"/>
		<path fill="#FA8503" d="M63.327,87.46l3.22-0.863l1.727,6.44l-3.22,0.863L63.327,87.46z"/>
	</g>
</g>
</svg>
