<?xml version="1.0" encoding="utf-8"?>
<!-- Generator: Adobe Illustrator 24.0.2, SVG Export Plug-In . SVG Version: 6.00 Build 0)  -->
<svg version="1.1" id="Layer_1" xmlns="http://www.w3.org/2000/svg" xmlns:xlink="http://www.w3.org/1999/xlink" x="0px" y="0px"
	 viewBox="0 0 100 100" enable-background="new 0 0 100 100" xml:space="preserve">
<path fill="#FA8503" d="M20,6.667h3.333V10H20V6.667z"/>
<path fill="#FA8503" d="M26.667,6.667H30V10h-3.333V6.667z"/>
<path fill="#FA8503" d="M33.333,6.667h3.333V10h-3.333V6.667z"/>
<path fill="#FA8503" d="M1.667,100h51.667c0.674,0,1.282-0.406,1.54-1.029s0.115-1.34-0.361-1.816L2.845,45.488
	c-0.477-0.476-1.194-0.619-1.816-0.361S0,45.993,0,46.667v51.667C0,99.254,0.746,100,1.667,100z M3.333,50.69L49.31,96.667H3.333
	V50.69z"/>
<path fill="#156BA3" d="M29.512,87.155L12.845,70.488c-0.477-0.476-1.194-0.619-1.816-0.361S10,70.993,10,71.667v16.667
	C10,89.254,10.746,90,11.667,90h16.667c0.674,0,1.282-0.406,1.54-1.029S29.988,87.632,29.512,87.155z M13.333,86.667V75.69
	L24.31,86.667H13.333z"/>
<path fill="#156BA3" d="M98.13,14.227c2.492-2.492,2.492-6.532,0-9.023s-6.532-2.492-9.023,0l-2.5,2.5
	C86.285,3.368,82.681,0.011,78.333,0H21.667c-4.6,0.006-8.328,3.733-8.333,8.333v43.333h3.333V8.333c0-2.761,2.239-5,5-5h56.667
	c2.761,0,5,2.239,5,5v2.643l-15.69,15.69h-12.25C52.107,18.253,43.18,13.488,34.36,15.443C25.54,17.397,19.461,25.486,20.037,34.5
	c0.575,9.015,7.634,16.266,16.63,17.083v6.75c0,0.92,0.746,1.667,1.667,1.667H75c0.92,0,1.667-0.746,1.667-1.667V35.69l6.667-6.667
	v34.31H45c-0.92,0-1.667,0.746-1.667,1.667v13.333C43.333,79.254,44.08,80,45,80h38.333v1.667c0,2.761-2.239,5-5,5H51.667V90h26.667
	c4.6-0.006,8.328-3.733,8.333-8.333V80h11.667c0.92,0,1.667-0.746,1.667-1.667V65c0-0.92-0.746-1.667-1.667-1.667H86.667V25.69
	L98.13,14.227z M91.463,7.56c0.764-0.798,1.9-1.12,2.97-0.841c1.069,0.278,1.903,1.113,2.182,2.182
	c0.278,1.069-0.043,2.205-0.841,2.97L95,12.643l-4.31-4.31L91.463,7.56z M53.333,33.333C53.323,40.968,47.586,47.38,40,48.235V30
	h12.947C53.2,31.093,53.33,32.211,53.333,33.333z M36.667,28.333v19.902c-7.149-0.787-12.734-6.539-13.31-13.708
	s4.018-13.739,10.95-15.658s14.25,1.353,17.443,7.798H38.333C37.413,26.667,36.667,27.413,36.667,28.333z M73.333,56.667H40v-5.083
	c5.139-0.45,9.848-3.053,12.963-7.165c3.114-4.112,4.344-9.351,3.385-14.419h7.961l-3.822,3.822
	c-0.233,0.232-0.391,0.529-0.455,0.852l-1.667,8.333c-0.098,0.489,0.028,0.997,0.345,1.383C59.028,44.775,59.501,45,60,45
	c0.112,0.001,0.224-0.011,0.334-0.033l8.333-1.667c0.322-0.063,0.619-0.222,0.851-0.455l3.815-3.822V56.667z M62.69,38.38
	l2.264,2.264l-2.834,0.565L62.69,38.38z M90,66.667V70h3.333v-3.333h3.333v10h-50v-10H50V70h3.333v-3.333h3.333V70H60v-3.333h3.333
	V70h3.333v-3.333H70V70h3.333v-3.333h3.333V70H80v-3.333h3.333V70h3.333v-3.333H90z M68.333,39.31L64.023,35l24.31-24.31l4.31,4.31
	L68.333,39.31z"/>
</svg>
