<?xml version="1.0" encoding="utf-8"?>
<!-- Generator: Adobe Illustrator 24.0.2, SVG Export Plug-In . SVG Version: 6.00 Build 0)  -->
<svg version="1.1" id="Layer_5" xmlns="http://www.w3.org/2000/svg" xmlns:xlink="http://www.w3.org/1999/xlink" x="0px" y="0px"
	 viewBox="0 0 98.768 100" enable-background="new 0 0 98.768 100" xml:space="preserve">
<path fill="#156BA3" d="M90.703,58.065H78.416v-9.342l-4.25-1c-0.537-1.871-1.282-3.671-2.227-5.374l2.298-3.713l-3.666-3.666
	l8.584-10.731c1.679,0.989,3.627,1.568,5.713,1.568c6.226,0,11.29-5.065,11.29-11.29s-5.065-11.29-11.29-11.29
	c-5.427,0-9.969,3.85-11.045,8.961L46.113,10.4C45.656,4.59,40.792,0,34.868,0c-6.226,0-11.29,5.065-11.29,11.29
	s5.065,11.29,11.29,11.29c5.427,0,9.969-3.85,11.045-8.961l27.71,1.787c0.206,2.627,1.315,4.998,3.016,6.815l-8.361,10.453
	l-2.689-2.689l-3.713,2.298c-1.703-0.945-3.503-1.692-5.374-2.229L55.5,25.806H43.268l-1,4.248
	c-1.871,0.537-3.671,1.282-5.374,2.229l-3.713-2.298l-8.65,8.65l2.298,3.713c-0.945,1.703-1.692,3.503-2.229,5.374l-4.248,1v9.342
	H8.065L0,74.194h7.448V100h83.871V74.194h7.448L90.703,58.065z M84.868,6.452c4.447,0,8.065,3.618,8.065,8.065
	s-3.618,8.065-8.065,8.065c-4.447,0-8.065-3.618-8.065-8.065S80.421,6.452,84.868,6.452z M34.868,19.355
	c-4.447,0-8.065-3.618-8.065-8.065s3.618-8.065,8.065-8.065s8.065,3.618,8.065,8.065S39.315,19.355,34.868,19.355z M93.548,70.968
	h-33.49l-4.839-9.677h33.49L93.548,70.968z M43.815,58.065c-0.569-0.977-0.882-2.076-0.882-3.226c0-3.558,2.894-6.452,6.452-6.452
	c3.558,0,6.452,2.894,6.452,6.452c0,1.152-0.313,2.247-0.881,3.226H43.815z M33.616,58.065c-0.215-1.06-0.361-2.135-0.361-3.226
	c0-8.894,7.235-16.129,16.129-16.129s16.129,7.235,16.129,16.129c0,1.092-0.147,2.166-0.361,3.226H58.5
	c0.363-1.026,0.561-2.11,0.561-3.226c0-5.337-4.34-9.677-9.677-9.677s-9.677,4.34-9.677,9.677c0,1.116,0.198,2.2,0.563,3.226H33.616
	z M23.577,51.277l3.665-0.863l0.235-0.96c0.544-2.219,1.423-4.337,2.611-6.297l0.513-0.845l-1.982-3.203l5.037-5.037l3.203,1.982
	l0.845-0.513c1.958-1.189,4.077-2.066,6.297-2.611l0.96-0.235l0.861-3.663h7.123l0.863,3.665l0.96,0.235
	c2.219,0.544,4.337,1.423,6.297,2.611l0.845,0.513l3.203-1.982l5.037,5.037l-1.982,3.203l0.513,0.845
	c1.187,1.956,2.066,4.076,2.611,6.297l0.235,0.96l3.663,0.861v6.787H68.46c0.177-1.063,0.279-2.14,0.279-3.226
	c0-10.673-8.682-19.355-19.355-19.355s-19.355,8.682-19.355,19.355c0,1.085,0.102,2.163,0.279,3.226h-6.731L23.577,51.277z
	 M10.058,61.29h36.716l-4.839,9.677H5.219L10.058,61.29z M10.674,74.194h33.255l5.455-10.91v33.49h-38.71V74.194z M88.094,96.774
	H52.61v-33.49l5.455,10.91h30.029V96.774z"/>
<path fill="#FA8503" d="M84.868,19.355c2.668,0,4.839-2.171,4.839-4.839s-2.171-4.839-4.839-4.839s-4.839,2.171-4.839,4.839
	S82.2,19.355,84.868,19.355z M84.868,12.903c0.889,0,1.613,0.724,1.613,1.613s-0.724,1.613-1.613,1.613
	c-0.889,0-1.613-0.724-1.613-1.613S83.979,12.903,84.868,12.903z"/>
<path fill="#FA8503" d="M34.868,6.452c-2.668,0-4.839,2.171-4.839,4.839s2.171,4.839,4.839,4.839s4.839-2.171,4.839-4.839
	S37.535,6.452,34.868,6.452z M34.868,12.903c-0.889,0-1.613-0.724-1.613-1.613s0.724-1.613,1.613-1.613s1.613,0.724,1.613,1.613
	C36.481,12.179,35.756,12.903,34.868,12.903z"/>
<path fill="#FA8503" d="M13.9,77.419v16.129h32.258V77.419H13.9z M42.932,90.323H17.126v-9.677h25.806V90.323z"/>
<path fill="#FA8503" d="M36.481,83.871h3.226v3.226h-3.226V83.871z"/>
<path fill="#FA8503" d="M30.029,83.871h3.226v3.226h-3.226V83.871z"/>
<path fill="#FA8503" d="M23.577,83.871h3.226v3.226h-3.226V83.871z"/>
<path fill="#FA8503" d="M81.642,90.323h3.226v3.226h-3.226V90.323z"/>
<path fill="#FA8503" d="M75.19,90.323h3.226v3.226H75.19V90.323z"/>
<path fill="#FA8503" d="M68.739,90.323h3.226v3.226h-3.226V90.323z"/>
<path fill="#FA8503" d="M68.739,83.871h16.129v3.226H68.739V83.871z"/>
</svg>
