<?xml version="1.0" encoding="utf-8"?>
<!-- Generator: Adobe Illustrator 24.0.2, SVG Export Plug-In . SVG Version: 6.00 Build 0)  -->
<svg version="1.1" id="Capa_1" xmlns="http://www.w3.org/2000/svg" xmlns:xlink="http://www.w3.org/1999/xlink" x="0px" y="0px"
	 viewBox="0 0 99.953 100" enable-background="new 0 0 99.953 100" xml:space="preserve">
<path fill="#156BA3" d="M9.995,100h68.302c5.518-0.005,9.99-4.477,9.995-9.995c0-0.92-0.746-1.666-1.666-1.666
	c-0.92,0-1.665,0.746-1.665,1.666c0,3.68-2.983,6.663-6.663,6.663H9.995c-3.68,0-6.663-2.983-6.663-6.663v-6.663
	c0-3.68,2.983-6.663,6.663-6.663s6.663,2.983,6.663,6.663c0,0.92,0.746,1.665,1.665,1.665c0.92,0,1.666-0.746,1.666-1.665V23.369
	h4.998v37.899c-0.001,0.214,0.04,0.425,0.12,0.623l5.118,12.704c0.506,1.262,1.732,2.087,3.092,2.083h4.998
	c0.92,0,1.665-0.746,1.665-1.666c0-0.92-0.746-1.665-1.665-1.665h-1.403l4.615-11.455c0.079-0.198,0.12-0.41,0.12-0.623V8.33
	c0-4.601-3.729-8.33-8.33-8.33c-4.6,0-8.329,3.729-8.329,8.33v11.708H19.99v-3.332c0-5.52-4.475-9.996-9.995-9.996
	S0,11.186,0,16.706v73.299C0.005,95.523,4.477,99.995,9.995,100z M38.315,57.905c-1.033-0.568-2.163-0.94-3.332-1.096V28.367
	c0-0.92-0.746-1.665-1.666-1.665c-0.92,0-1.665,0.746-1.665,1.665v28.442c-1.169,0.156-2.299,0.528-3.332,1.096V16.706h9.995V57.905
	z M33.317,73.346l-4.664-11.563c1.235-1.22,2.93-1.861,4.664-1.765c1.734-0.097,3.429,0.544,4.665,1.765L33.317,73.346z
	 M33.317,3.378c2.746-0.01,4.982,2.205,4.998,4.951v5.044H28.32V8.33C28.335,5.584,30.571,3.368,33.317,3.378z M9.995,10.042
	c3.68,0,6.663,2.984,6.663,6.664v59.206c-3.784-3.421-9.543-3.421-13.327,0V16.706C3.332,13.026,6.315,10.042,9.995,10.042z"/>
<g>
	<path fill="#FA8503" d="M44.979,23.069v3.932c0,1.588,1.12,2.955,2.677,3.267l3.155,0.631l-1.784,2.677
		c-0.875,1.323-0.702,3.079,0.417,4.205l2.782,2.78c1.125,1.118,2.88,1.292,4.203,0.416l2.677-1.782l0.631,3.153
		c0.312,1.556,1.679,2.677,3.267,2.677h3.931c1.588,0,2.955-1.121,3.267-2.677l0.631-3.153l2.677,1.784
		c1.323,0.877,3.08,0.703,4.205-0.416l2.78-2.782c1.119-1.125,1.293-2.88,0.416-4.203l-1.782-2.678l3.153-0.631
		c1.557-0.312,2.677-1.679,2.677-3.267v-3.932c0-1.588-1.12-2.954-2.677-3.266l-3.153-0.631l1.782-2.677
		c0.876-1.323,0.702-3.079-0.416-4.205l-2.782-2.78c-1.125-1.119-2.881-1.293-4.203-0.416l-2.677,1.783l-0.631-3.154
		c-0.312-1.556-1.679-2.677-3.267-2.677h-3.931c-1.588,0-2.955,1.12-3.267,2.677l-0.631,3.154l-2.677-1.783
		c-1.323-0.875-3.079-0.702-4.204,0.416l-2.78,2.782c-1.119,1.126-1.293,2.881-0.417,4.203l1.783,2.677l-3.153,0.631
		C46.099,20.115,44.979,21.481,44.979,23.069z M48.31,23.069l3.156-0.631c1.089-0.217,1.999-0.965,2.424-1.991
		c0.425-1.027,0.31-2.198-0.306-3.123l-1.786-2.679l2.783-2.78l2.677,1.786c0.925,0.616,2.096,0.731,3.123,0.305
		c1.026-0.425,1.774-1.335,1.992-2.424l0.631-3.155h3.931l0.631,3.155c0.218,1.09,0.965,1.999,1.992,2.424
		c1.026,0.426,2.198,0.311,3.123-0.305l2.678-1.786l2.78,2.782l-1.786,2.677c-0.615,0.925-0.731,2.096-0.305,3.123
		c0.426,1.026,1.335,1.774,2.424,1.991l3.156,0.631v3.932l-3.156,0.631c-1.09,0.218-1.999,0.965-2.424,1.992
		c-0.426,1.026-0.31,2.198,0.305,3.122l1.786,2.679l-2.782,2.78l-2.677-1.786c-0.925-0.616-2.096-0.731-3.123-0.305
		s-1.774,1.335-1.992,2.424l-0.631,3.156h-3.931l-0.631-3.156c-0.218-1.09-0.965-1.999-1.992-2.424
		c-1.026-0.426-2.198-0.311-3.123,0.305l-2.679,1.786l-2.78-2.782l1.786-2.677c0.616-0.924,0.731-2.096,0.306-3.122
		c-0.426-1.027-1.335-1.774-2.424-1.992l-3.156-0.631V23.069z"/>
	<path fill="#FA8503" d="M64.969,35.03c5.52,0,9.996-4.475,9.996-9.995s-4.476-9.995-9.996-9.995s-9.995,4.475-9.995,9.995
		C54.979,30.553,59.451,35.025,64.969,35.03z M64.969,18.371c3.68,0,6.664,2.983,6.664,6.663s-2.984,6.663-6.664,6.663
		c-3.68,0-6.663-2.983-6.663-6.663S61.289,18.371,64.969,18.371z"/>
	<path fill="#FA8503" d="M97.276,61.45l-3.153-0.631l1.784-2.677c0.876-1.322,0.702-3.079-0.416-4.204l-2.783-2.78
		c-1.125-1.119-2.881-1.293-4.203-0.416l-2.677,1.782l-0.631-3.153c-0.312-1.557-1.679-2.677-3.267-2.677h-3.932
		c-1.588,0-2.954,1.12-3.266,2.677l-0.631,3.153l-2.677-1.782c-1.323-0.877-3.079-0.703-4.205,0.416l-2.78,2.782
		c-1.118,1.125-1.292,2.88-0.416,4.203l1.783,2.677l-3.154,0.631c-1.556,0.312-2.677,1.679-2.677,3.267v3.931
		c0,1.588,1.12,2.955,2.677,3.267l3.156,0.631l-1.784,2.677c-0.875,1.322-0.702,3.079,0.416,4.204l2.783,2.78
		c1.125,1.118,2.88,1.292,4.203,0.416l2.677-1.782l0.631,3.153c0.312,1.557,1.678,2.677,3.266,2.677h3.932
		c1.588,0,2.955-1.12,3.267-2.677l0.631-3.153l2.677,1.784c1.323,0.876,3.08,0.702,4.205-0.416l2.78-2.783
		c1.118-1.125,1.292-2.88,0.416-4.203l-1.782-2.679l3.153-0.631c1.556-0.312,2.677-1.679,2.677-3.267v-3.931
		C99.953,63.129,98.832,61.762,97.276,61.45z M96.622,68.648l-3.156,0.631c-1.09,0.218-1.999,0.965-2.424,1.992
		c-0.426,1.026-0.311,2.198,0.305,3.123l1.786,2.678l-2.782,2.78l-2.677-1.785c-0.924-0.616-2.096-0.731-3.122-0.306
		c-1.027,0.426-1.774,1.335-1.992,2.424l-0.631,3.156h-3.932l-0.631-3.156c-0.217-1.09-0.965-1.999-1.991-2.424
		c-1.027-0.425-2.198-0.31-3.123,0.306l-2.679,1.785l-2.78-2.782l1.786-2.677c0.616-0.925,0.731-2.096,0.305-3.123
		c-0.425-1.026-1.335-1.774-2.424-1.992l-3.155-0.631v-3.931l3.155-0.631c1.09-0.218,1.999-0.965,2.424-1.992
		c0.426-1.026,0.311-2.198-0.305-3.123l-1.786-2.678l2.782-2.78l2.677,1.785c0.925,0.616,2.096,0.731,3.123,0.306
		c1.026-0.426,1.774-1.335,1.991-2.424l0.631-3.156h3.932l0.631,3.156c0.218,1.09,0.965,1.999,1.992,2.424
		c1.026,0.425,2.198,0.31,3.122-0.306l2.679-1.785l2.78,2.782l-1.786,2.677c-0.616,0.925-0.731,2.096-0.305,3.123
		c0.426,1.026,1.335,1.774,2.424,1.992l3.156,0.631V68.648z"/>
	<path fill="#FA8503" d="M79.962,56.687c-5.52,0-9.995,4.476-9.995,9.996c0,5.52,4.475,9.995,9.995,9.995
		c5.52,0,9.995-4.476,9.995-9.995C89.952,61.165,85.48,56.693,79.962,56.687z M79.962,73.346c-3.68,0-6.663-2.984-6.663-6.663
		c0-3.68,2.983-6.664,6.663-6.664c3.68,0,6.663,2.984,6.663,6.664C86.626,70.362,83.643,73.346,79.962,73.346z"/>
</g>
<path fill="#156BA3" d="M43.313,75.012c0,0.92,0.746,1.666,1.666,1.666H56.64c0.92,0,1.665-0.746,1.665-1.666
	c0-0.92-0.746-1.665-1.665-1.665H44.979C44.058,73.346,43.313,74.092,43.313,75.012z"/>
<path fill="#156BA3" d="M31.652,83.341h8.329c0.92,0,1.666-0.746,1.666-1.666c0-0.92-0.746-1.665-1.666-1.665h-8.329
	c-0.92,0-1.666,0.746-1.666,1.665C29.986,82.596,30.731,83.341,31.652,83.341z"/>
<path fill="#156BA3" d="M44.979,81.675c0,0.92,0.746,1.666,1.666,1.666h13.327c0.92,0,1.665-0.746,1.665-1.666
	c0-0.92-0.746-1.665-1.665-1.665H46.645C45.725,80.01,44.979,80.755,44.979,81.675z"/>
<path fill="#156BA3" d="M29.986,88.339c0,0.92,0.746,1.666,1.666,1.666h33.317c0.92,0,1.666-0.746,1.666-1.666
	c0-0.92-0.746-1.665-1.666-1.665H31.652C30.731,86.673,29.986,87.419,29.986,88.339z"/>
</svg>
