<?xml version="1.0" encoding="utf-8"?>
<!-- Generator: Adobe Illustrator 24.0.2, SVG Export Plug-In . SVG Version: 6.00 Build 0)  -->
<svg version="1.1" id="Layer_1" xmlns="http://www.w3.org/2000/svg" xmlns:xlink="http://www.w3.org/1999/xlink" x="0px" y="0px"
	 viewBox="0 0 94.991 100.003" enable-background="new 0 0 94.991 100.003" xml:space="preserve">
<path fill="#146CA4" d="M69.995,76.67h-0.002c-0.92,0-1.666,0.746-1.666,1.666v3.335c0,0.92-0.746,1.666-1.666,1.666H39.995
	c-0.92,0-1.666,0.746-1.666,1.666v0.002c0,0.92,0.746,1.666,1.666,1.666h26.666c0.92,0,1.666,0.746,1.666,1.665v1.669
	c0,3.681-2.984,6.665-6.665,6.665H26.664c-1.351-0.002-2.625-0.547-3.553-1.482c-0.541-0.545-1.371-0.676-2.036-0.292l0,0
	c-0.939,0.542-1.123,1.829-0.363,2.603c1.549,1.578,3.686,2.5,5.953,2.504h36.663c4.6-0.006,8.327-3.733,8.333-8.333V78.335
	C71.66,77.415,70.915,76.67,69.995,76.67z"/>
<path fill="#146CA4" d="M44.788,89.585L44.788,89.585c1.321,0,2.391,1.071,2.391,2.391l0,0c0,1.321-1.071,2.391-2.391,2.391l0,0
	c-1.321,0-2.391-1.071-2.391-2.391l0,0C42.396,90.656,43.467,89.585,44.788,89.585z"/>
<path fill="#146CA4" d="M19.824,66.254h0.206c-0.92,0-1.666,0.746-1.666,1.666v23.749c0.006,4.6,3.733,8.327,8.333,8.333H63.36
	c2.268-0.004,4.404-0.927,5.953-2.504c0.76-0.774,0.576-2.061-0.363-2.603l0,0c-0.665-0.384-1.495-0.253-2.036,0.292
	c-0.928,0.935-2.202,1.48-3.553,1.482H28.362c-3.681,0-6.665-2.984-6.665-6.665v-1.669c0-0.92,0.746-1.665,1.666-1.665h26.666
	c0.92,0,1.666-0.746,1.666-1.666v-0.003c0-0.92-0.746-1.666-1.666-1.666H23.363c-0.92,0-1.666-0.746-1.666-1.666V67.92
	C21.697,67,20.743,66.254,19.824,66.254"/>
<path fill="#146CA4" d="M21.665,17.279v-3.937H69.16v-3.333H21.665V8.343c0-2.761,2.239-5,5-5h36.663
	c1.217,0,2.393,0.444,3.306,1.25l2.205-2.5c-1.522-1.343-3.482-2.084-5.511-2.083H26.664c-4.6,0.006-8.327,3.733-8.333,8.333v9.998"
	/>
<path fill="#F6851F" d="M89.697,33.34c-1.291,0.002-2.536,0.476-3.5,1.333L71.66,47.489l-0.342,0.35l-0.312,0.262l-0.616,0.475
	c-0.249,0.287-0.996,0.912-1.581,1.429l0,0l-9.481,8.366c-6.168,0.353-10.992,5.454-10.999,11.632v2.94
	c0.007,1.653-0.928,3.168-2.411,3.901c-0.692,0.345-1.056,1.121-0.879,1.874s0.85,1.285,1.623,1.284h11.666
	c6.179-0.007,11.279-4.831,11.632-10.999l23.708-26.868c1.376-1.561,1.71-3.783,0.854-5.68C93.666,34.559,91.778,33.34,89.697,33.34
	z M58.328,76.67h-7.621c0.629-1.141,0.958-2.423,0.955-3.726v-2.94c0.006-4.341,3.339-7.953,7.666-8.306l7.306,7.306
	C66.282,73.331,62.669,76.665,58.328,76.67z M91.169,39.932L68.252,65.904l-5.825-5.823L88.4,37.163
	c0.777-0.682,1.95-0.644,2.681,0.087C91.812,37.982,91.851,39.154,91.169,39.932z"/>
<path fill="#146CA4" d="M71.66,41.206l0.05-32.873c-0.006-4.6-3.733-8.327-8.333-8.333L26.714,0.001
	c-2.029-0.001-3.99,0.74-5.511,2.083l2.205,2.5c0.913-0.806,2.089-1.25,3.306-1.25h36.663c2.761,0,5,2.239,5,5l-0.05,32.927"/>
<path fill="#146CA4" d="M68.326,24.078v18.749c0,0.92,0.746,1.666,1.666,1.666h0.002c0.92,0,1.666-0.746,1.666-1.666v-8.751"/>
<path fill="#146CA4" d="M18.357,11.964l-0.05,5.927"/>
<path fill="#146CA4" d="M21.64,16.836l0.05-8.873"/>
<path fill="#146CA4" d="M18.357,16.072l-0.05,2.751c0,0.92,0.746,1.666,1.666,1.666h0.002c0.92,0,1.666-0.746,1.666-1.666v-2.751"/>
<path fill="#F6851F" d="M18.332,23.341c-7.504,3.143-12.618,10.22-13.248,18.332H0v3.333h5.088
	c0.786,10.655,9.255,19.129,19.91,19.922v5.076h3.333v-5.076c10.655-0.793,19.123-9.267,19.91-19.922h5.088v-3.333h-5.084
	c-0.831-10.635-9.279-19.083-19.914-19.914v-5.084h-3.333v5.084c-1.123,0.086-2.237,0.26-3.333,0.52 M24.998,58.338v3.257
	c-2.325-0.209-4.587-0.863-6.666-1.924v-2.999c0-4.602,3.731-8.333,8.333-8.333s8.333,3.731,8.333,8.333v2.999
	c-2.078,1.063-4.341,1.717-6.666,1.929v-3.261L24.998,58.338L24.998,58.338z M21.665,40.006c0-2.761,2.239-5,5-5s5,2.239,5,5
	s-2.239,5-5,5S21.665,42.767,21.665,40.006z M38.885,57.005c-0.18,0.166-0.372,0.299-0.555,0.453v-0.787
	c-0.004-4.353-2.432-8.342-6.297-10.346c2.677-2.255,3.659-5.943,2.459-9.23c-1.2-3.288-4.327-5.476-7.827-5.476
	s-6.627,2.187-7.827,5.476c-1.2,3.287-0.218,6.975,2.459,9.23c-3.865,2.003-6.293,5.992-6.297,10.346v0.795
	c-0.185-0.151-0.377-0.294-0.555-0.453c-3.453-3.097-5.606-7.387-6.022-12.007h3.244v-3.333h-3.25
	c0.815-8.798,7.783-15.766,16.581-16.581v3.248h3.333v-3.248c8.798,0.815,15.766,7.783,16.581,16.581h-3.248v3.333h3.244
	c-0.417,4.62-2.569,8.91-6.022,12.007L38.885,57.005L38.885,57.005z"/>
</svg>
