<svg width="99" height="62" viewBox="0 0 99 62" fill="none" xmlns="http://www.w3.org/2000/svg">
<path d="M42.6318 43.6561H2.84342C2.14128 43.6561 1.55615 43.0702 1.55615 42.3671V36.1562V2.28906C1.55615 1.58594 2.14128 1 2.84342 1H57.845C58.5471 1 59.1323 1.58594 59.1323 2.28906V3.80007" stroke="white" stroke-width="1.5" stroke-miterlimit="10"></path>
<path d="M36.5465 46.1172V51.1562" stroke="white" stroke-width="1.5" stroke-miterlimit="10"></path>
<path d="M25.3122 51.1562V46.1172" stroke="white" stroke-width="1.5" stroke-miterlimit="10"></path>
<path d="M41.5786 51.1562H20.2801" stroke="white" stroke-width="1.5" stroke-miterlimit="10"></path>
<path d="M42.9829 36.1562H1.55615" stroke="white" stroke-width="1.5" stroke-miterlimit="10"></path>
<path d="M29.0569 39.906H32.8017" stroke="white" stroke-width="1.5" stroke-miterlimit="10"></path>
<path d="M5.3009 6.03931H15.248" stroke="white" stroke-width="1.5" stroke-miterlimit="10"></path>
<path d="M10.3331 11.0781H14.0777" stroke="white" stroke-width="1.5" stroke-miterlimit="10"></path>
<path d="M15.248 11.0781H30.2272" stroke="white" stroke-width="1.5" stroke-miterlimit="10"></path>
<path d="M10.3331 16.1172H21.5674" stroke="white" stroke-width="1.5" stroke-miterlimit="10"></path>
<path d="M22.7376 16.1172H27.7697" stroke="white" stroke-width="1.5" stroke-miterlimit="10"></path>
<path d="M10.3331 26.0779H14.0777" stroke="white" stroke-width="1.5" stroke-miterlimit="10"></path>
<path d="M15.248 26.0779H39.004" stroke="white" stroke-width="1.5" stroke-miterlimit="10"></path>
<path d="M10.3331 31.1168H21.5674" stroke="white" stroke-width="1.5" stroke-miterlimit="10"></path>
<path d="M22.7376 31.1168H27.7697" stroke="white" stroke-width="1.5" stroke-miterlimit="10"></path>
<path d="M5.3009 21.1564H16.5353" stroke="white" stroke-width="1.5" stroke-miterlimit="10"></path>
<path d="M46.6686 39.2603V58.1013C46.6686 59.6956 47.9712 60.9999 49.5632 60.9999H72.7201C74.3121 60.9999 75.6147 59.6956 75.6147 58.1013V10.274C75.6147 8.67975 74.3121 7.37537 72.7201 7.37537H49.5632C47.9712 7.37537 46.6686 8.67975 46.6686 10.274V30.5644" stroke="white" stroke-width="1.5" stroke-miterlimit="10"></path>
<path d="M56.6936 32.348L53.1133 35.9334L56.6936 39.5187" stroke="white" stroke-width="1.5" stroke-miterlimit="10"></path>
<path d="M65.6445 32.348L69.2248 35.9334L65.6445 39.5187" stroke="white" stroke-width="1.5" stroke-miterlimit="10"></path>
<path d="M62.9592 29.6591L59.3788 42.2076" stroke="white" stroke-width="1.5" stroke-miterlimit="10"></path>
<path d="M66.7465 11.1961H54.9016L54.0464 7.63867H67.6017L66.7465 11.1961Z" stroke="white" stroke-width="1.5" stroke-miterlimit="10" stroke-linejoin="round"></path>
<path d="M78.4684 53.1253H94.5479C96.0955 53.1253 97.3616 51.8574 97.3616 50.3077V31.9934V23.5407V3.81758C97.3616 2.26791 96.0955 1 94.5479 1H72.0385C70.491 1 69.2249 2.26791 69.2249 3.81758V5.21146" stroke="white" stroke-width="1.5" stroke-miterlimit="10"></path>
<path d="M78.8005 49.1395L97.757 49.1395" stroke="white" stroke-width="1.5" stroke-miterlimit="10" stroke-linejoin="round"></path>
<path d="M98.1403 3.80286L69.0713 3.80286" stroke="white" stroke-width="1.5" stroke-miterlimit="10" stroke-linejoin="round"></path>
</svg>