<svg width="75" height="62" viewBox="0 0 75 62" fill="none" xmlns="http://www.w3.org/2000/svg">
<path d="M40.8954 19.0952V4.24324C40.8954 2.45946 42.3528 1 44.1341 1H70.0441C71.8254 1 73.2828 2.45946 73.2828 4.24324V26.9459V36.6757V57.7568C73.2828 59.5405 71.8254 61 70.0441 61H44.1341C42.3528 61 40.8954 59.5405 40.8954 57.7568V44.3333" stroke="white" stroke-width="1.5" stroke-miterlimit="10"></path>
<path d="M40.8954 56.0613H73.2828" stroke="white" stroke-width="1.5" stroke-miterlimit="10" stroke-linejoin="round"></path>
<path d="M73.2828 4.31689H40.8954" stroke="white" stroke-width="1.5" stroke-miterlimit="10" stroke-linejoin="round"></path>
<path d="M33.3875 18.619V4.24324C33.3875 2.45946 31.93 1 30.1487 1H4.23875C2.45744 1 1 2.45946 1 4.24324V26.9459V36.6757V57.7568C1 59.5405 2.45744 61 4.23875 61H30.1487C31.93 61 33.3875 59.5405 33.3875 57.7568V44.3333" stroke="white" stroke-width="1.5" stroke-miterlimit="10"></path>
<path d="M23.8222 5.27509H10.5691L9.61218 1.2948H24.7791L23.8222 5.27509Z" stroke="white" stroke-width="1.5" stroke-miterlimit="10" stroke-linejoin="round"></path>
<rect x="7.27356" y="20.4594" width="60.3686" height="22.0393" stroke="white" stroke-width="1.5" stroke-miterlimit="10"></rect>
<path d="M32.0035 27.4545L28.1759 31.2874L32.0035 35.1203" stroke="white" stroke-width="1.5" stroke-miterlimit="10"></path>
<path d="M41.5725 27.4545L45.4001 31.2874L41.5725 35.1203" stroke="white" stroke-width="1.5" stroke-miterlimit="10"></path>
<path d="M38.7017 24.5798L34.8741 37.9951" stroke="white" stroke-width="1.5" stroke-miterlimit="10"></path>
</svg>