<svg width="65" height="62" viewBox="0 0 65 62" fill="none" xmlns="http://www.w3.org/2000/svg">
<path d="M56.6371 15.2857V2.42857C56.6371 1.57143 56.0664 1 55.2105 1H2.42659C1.57064 1 1 1.57143 1 2.42857V52.4286C1 53.2858 1.57064 53.8572 2.42659 53.8572H35.2382" stroke="white" stroke-width="1.5" stroke-miterlimit="10"></path>
<path d="M39.5179 39.5714V58.1429C39.5179 59.7143 40.8018 61 42.3711 61H60.9168C62.486 61 63.7699 59.7143 63.7699 58.1429V22.4286C63.7699 20.8571 62.486 19.5714 60.9168 19.5714H42.3711C40.8018 19.5714 39.5179 20.8571 39.5179 22.4286V31" stroke="white" stroke-width="1.5" stroke-miterlimit="10"></path>
<path d="M49.5041 56.7142H53.7838" stroke="white" stroke-width="1.5" stroke-miterlimit="10" stroke-linejoin="round"></path>
<path d="M3.85321 9.57166H53.7839" stroke="white" stroke-width="1.5" stroke-miterlimit="10"></path>
<path d="M5.27982 5.28577H8.13299" stroke="white" stroke-width="1.5" stroke-miterlimit="10"></path>
<path d="M9.55957 5.28577H12.4128" stroke="white" stroke-width="1.5" stroke-miterlimit="10"></path>
<path d="M20.9723 35.2858H53.7839" stroke="white" stroke-width="1.5" stroke-miterlimit="10"></path>
<path d="M48.0775 41L53.7839 35.2857L48.0775 29.5714" stroke="white" stroke-width="1.5" stroke-miterlimit="10"></path>
<path d="M26.6787 41L20.9723 35.2857L26.6787 29.5714" stroke="white" stroke-width="1.5" stroke-miterlimit="10"></path>
</svg>