<svg width="80" height="62" viewBox="0 0 80 62" fill="none" xmlns="http://www.w3.org/2000/svg">
<path d="M35.9981 35.5455V57.3636C35.9981 59.3636 34.364 61 32.3668 61H5.13204C3.13482 61 1.50073 59.3636 1.50073 57.3636V4.63636C1.50073 2.63636 3.13482 1 5.13204 1H32.3668C34.364 1 35.9981 2.63636 35.9981 4.63636V24.6364" stroke="white" stroke-width="1.5" stroke-miterlimit="10"></path>
<path d="M16.026 55.5454H21.473" stroke="white" stroke-width="1.5" stroke-miterlimit="10" stroke-linejoin="round"></path>
<path d="M61.4176 30.0909H17.8417" stroke="white" stroke-width="1.5" stroke-miterlimit="10"></path>
<path d="M23.2887 35.5455L17.8417 30.0909L23.2887 24.6364" stroke="white" stroke-width="1.5" stroke-miterlimit="10"></path>
<path d="M55.9705 35.5455L61.4175 30.0909L55.9705 24.6364" stroke="white" stroke-width="1.5" stroke-miterlimit="10"></path>
<path d="M47.6993 34.4895V42.8641C47.6993 44.3995 48.9537 45.6557 50.487 45.6557H70.0006C71.5339 45.6557 72.7883 44.3995 72.7883 42.8641V19.1359C72.7883 17.6006 71.5339 16.3444 70.0006 16.3444H50.487C48.9537 16.3444 47.6993 17.6006 47.6993 19.1359V26.1148" stroke="white" stroke-width="1.5" stroke-miterlimit="10"></path>
<path d="M51.8807 45.6556V54.0303H68.6068V45.6556" stroke="white" stroke-width="1.5" stroke-miterlimit="10"></path>
<path d="M68.6068 16.3443V7.96973H51.8807V16.3443" stroke="white" stroke-width="1.5" stroke-miterlimit="10"></path>
<path d="M75.576 26.1149H76.9699C77.8062 26.1149 78.3637 26.6732 78.3637 27.5106V33.0937C78.3637 33.9312 77.8062 34.4895 76.9699 34.4895H75.576" stroke="white" stroke-width="1.5" stroke-miterlimit="10"></path>
</svg>