<svg xmlns="http://www.w3.org/2000/svg" version="1.1" id="Layer_1" x="0" y="0" viewBox="0 0 85 84" xml:space="preserve" class="offer-image replaced-svg"><style>.st0{fill:none;stroke:#505050}</style><path class="st0" d="M49.2 67.2l-4.7 4.6 4.7 4.7"></path><path class="st0" d="M44.5 71.8h26.3c2.6 0 4.6-2.1 4.6-4.7V39.2M36.8 14.4l4.7-4.6-4.7-4.7"></path><path class="st0" d="M41.5 9.8H15.2c-2.6 0-4.6 2.1-4.6 4.7v27.9"></path><path d="M19.8 61h46.4V20.6H19.8zm4.7-35.7h3.1m1.5 0h3.1m-12.4 4.6h46.4" stroke="#1476f2" fill="none"></path><path class="st0" d="M26 54.8h15.5V36.1H26zm20.1-18.7h15.5m-15.5 6.3h15.5m-15.5 6.2h9.3m20.1-12.5V33m0-3.1v-3.1m-65 28v-3.1m0-3.1v-3.1"></path></svg>