<svg xmlns="http://www.w3.org/2000/svg" viewBox="0 0 100.2 100.3" width="60" height="60"><style>.a{fill:#0B2E58;stroke-width:0.3;stroke:#0B2E58;}.b{fill:#FA8503;stroke-width:0.3;stroke:#FA8503;}</style><path d="M100.1 69.6l-5.6-26.6c-0.1-0.7-0.7-1.2-1.4-1.2H7.2c-0.7 0-1.3 0.5-1.4 1.2L0.2 69.6c-0.2 0.8 0.3 1.6 1.1 1.7 0.1 0 0.2 0 0.3 0H5.8v27.3c0 0.8 0.7 1.5 1.5 1.5 0 0 0 0 0 0h85.8c0.8 0 1.5-0.7 1.5-1.5 0 0 0 0 0 0V71.3h4.2c0.8 0 1.5-0.7 1.5-1.5C100.1 69.8 100.1 69.7 100.1 69.6L100.1 69.6zM8.4 44.8h39.9l-5 23.6H3.4L8.4 44.8zM8.7 71.3h35.8c0.7 0 1.3-0.5 1.4-1.2l2.7-12.8v39.8H8.7V71.3zM91.6 97.2H51.6V57.4l2.7 12.8c0.1 0.7 0.7 1.2 1.4 1.2h35.8L91.6 97.2zM56.9 68.4l-5-23.6h39.9l5 23.6H56.9z" class="a"/><path d="M25.9 89.5H14.6c-0.8 0-1.5 0.7-1.5 1.5s0.7 1.5 1.5 1.5h11.2c0.8 0 1.5-0.7 1.5-1.5S26.7 89.5 25.9 89.5z" class="b"/><path d="M35 89.5h-3.3c-0.8 0-1.5 0.7-1.5 1.5s0.7 1.5 1.5 1.5h3.3c0.8 0 1.5-0.7 1.5-1.5S35.8 89.5 35 89.5z" class="b"/><path d="M87.3 49.4H76.1c-0.8 0-1.5 0.7-1.5 1.5s0.7 1.5 1.5 1.5h11.2c0.8 0 1.5-0.7 1.5-1.5S88.2 49.4 87.3 49.4z" class="b"/><path d="M70.3 49.4H67c-0.8 0-1.5 0.7-1.5 1.5s0.7 1.5 1.5 1.5h3.3c0.8 0 1.5-0.7 1.5-1.5S71.1 49.4 70.3 49.4z" class="b"/><path d="M50.1 36.8c10.1 0 18.4-8.2 18.4-18.4S60.3 0.1 50.1 0.1 31.8 8.3 31.8 18.5C31.8 28.6 40 36.8 50.1 36.8zM50.1 3.1c8.5 0 15.4 6.9 15.4 15.4s-6.9 15.4-15.4 15.4 -15.4-6.9-15.4-15.4C34.7 10 41.6 3.1 50.1 3.1z" class="a"/><path d="M46.5 24.3c0.6 0.6 1.5 0.6 2.1 0l0 0 9.8-9.8c0.6-0.6 0.6-1.5 0-2.1 -0.6-0.6-1.5-0.6-2.1 0l-8.8 8.8 -3.6-3.6c-0.6-0.6-1.5-0.6-2.1 0s-0.6 1.5 0 2.1l0 0L46.5 24.3z" class="b"/></svg>
