<svg xmlns="http://www.w3.org/2000/svg" viewBox="0 0 100 100" width="52" height="52"><style>.a{fill:#FA8503;}</style><path d="M36.7 6.7h26.7V10H36.7V6.7z" class="a"/><path d="M36.7 13.3h26.7v3.3H36.7V13.3z" class="a"/><path d="M36.7 20h26.7v3.3H36.7V20z" class="a"/><path d="M41.7 41.7H65V45H41.7V41.7z" class="a"/><path d="M38.3 48.3h23.3v3.3H38.3V48.3z" class="a"/><path d="M35 55h23.3v3.3H35V55z" class="a"/><path d="M36.7 76.7h26.7V80H36.7V76.7z" class="a"/><path d="M36.7 83.3h26.7v3.3H36.7V83.3z" class="a"/><path d="M36.7 90h26.7v3.3H36.7V90z" class="a"/><path d="M19.2 86.7H30v11.7c0 0.9 0.7 1.7 1.7 1.7h36.7C69.3 100 70 99.3 70 98.3V86.7h3.4c0.8 6.6 6.4 11.7 13.2 11.7C94 98.3 100 92.4 100 85s-6-13.3-13.3-13.3c-6.8 0-12.4 5.1-13.2 11.7H70V71.7C70 70.7 69.3 70 68.3 70H31.7C30.7 70 30 70.7 30 71.7v11.7H19.2c-4.2 0-8.2-1.6-11.2-4.6C5 75.7 3.3 71.7 3.3 67.5c0-8.7 7.1-15.8 15.8-15.8h10.1l-4.2 11.1c-0.2 0.5-0.1 1.1 0.2 1.5C25.6 64.7 26.1 65 26.7 65h36.7c0.7 0 1.3-0.4 1.6-1.1l4.6-12.3h11.3c5.1 0 9.9-2 13.5-5.6C98 42.4 100 37.6 100 32.5c0-10.6-8.6-19.2-19.2-19.2H70V1.7C70 0.7 69.3 0 68.3 0H31.7C30.7 0 30 0.7 30 1.7v26.7C30 29.3 30.7 30 31.7 30h36.7C69.3 30 70 29.3 70 28.3V16.7h10.8c8.7 0 15.8 7.1 15.8 15.8 0 4.2-1.6 8.2-4.6 11.2 -3 3-7 4.6-11.2 4.6H70.7l4.2-11.1c0.2-0.5 0.1-1.1-0.2-1.5C74.4 35.3 73.9 35 73.3 35H36.7c-0.7 0-1.3 0.4-1.6 1.1l-4.6 12.3H19.2C8.6 48.3 0 56.9 0 67.5c0 5.1 2 9.9 5.6 13.5C9.2 84.7 14.1 86.7 19.2 86.7L19.2 86.7zM86.7 75c5.5 0 10 4.5 10 10 0 5.5-4.5 10-10 10 -5.5 0-10-4.5-10-10C76.7 79.5 81.2 75 86.7 75zM33.3 73.3h33.3v23.3H33.3V73.3zM66.7 26.7H33.3V3.3h33.3V26.7zM37.8 38.3h33.1l-8.7 23.3H29.1L37.8 38.3z" fill="#0B2E58"/><path d="M85 90c0.4 0 0.9-0.2 1.2-0.5l6.7-6.7 -2.4-2.4L85 86l-2.2-2.2 -2.4 2.4 3.3 3.3C84.1 89.8 84.6 90 85 90L85 90z" class="a"/></svg>
