<svg xmlns="http://www.w3.org/2000/svg" viewBox="0 0 85 85" width="60" height="60"><style>.a{fill:#0B2E58;}.b{fill:#FA8503;}</style><path d="M42.5 8.1c0.7 0 1.3-0.6 1.3-1.3v-5.6C43.8 0.6 43.2 0 42.5 0s-1.3 0.6-1.3 1.3v5.6C41.2 7.6 41.8 8.1 42.5 8.1z" class="a"/><path d="M64.4 9.8l-4 4c-0.5 0.5-0.5 1.3 0 1.8 0.2 0.2 0.6 0.4 0.9 0.4 0.3 0 0.6-0.1 0.9-0.4l4-4c0.5-0.5 0.5-1.3 0-1.8C65.6 9.3 64.8 9.3 64.4 9.8L64.4 9.8z" class="a"/><path d="M22.9 51.3l-4 4c-0.5 0.5-0.5 1.3 0 1.8 0.2 0.2 0.6 0.4 0.9 0.4 0.3 0 0.6-0.1 0.9-0.4l4-4c0.5-0.5 0.5-1.3 0-1.8C24.1 50.8 23.3 50.8 22.9 51.3z" class="a"/><path d="M22.9 15.5c0.2 0.2 0.6 0.4 0.9 0.4s0.6-0.1 0.9-0.4c0.5-0.5 0.5-1.3 0-1.8l-4-4c-0.5-0.5-1.3-0.5-1.8 0 -0.5 0.5-0.5 1.3 0 1.8L22.9 15.5z" class="a"/><path d="M62.1 51.3c-0.5-0.5-1.3-0.5-1.8 0s-0.5 1.3 0 1.8l4 4c0.2 0.2 0.6 0.4 0.9 0.4 0.3 0 0.6-0.1 0.9-0.4 0.5-0.5 0.5-1.3 0-1.8L62.1 51.3z" class="a"/><path d="M16 32.2h-5.6c-0.7 0-1.3 0.6-1.3 1.3 0 0.7 0.6 1.3 1.3 1.3h5.6c0.7 0 1.3-0.6 1.3-1.3C17.2 32.7 16.7 32.2 16 32.2z" class="a"/><path d="M74.7 32.2h-5.6c-0.7 0-1.3 0.6-1.3 1.3 0 0.7 0.6 1.3 1.3 1.3h5.6c0.7 0 1.3-0.6 1.3-1.3C75.9 32.7 75.4 32.2 74.7 32.2z" class="a"/><path d="M52.6 67.8c0.7 0 1.3-0.6 1.3-1.3 0-0.7-0.6-1.3-1.3-1.3h-0.5v-4.2l0-0.1c0.3-1.5 0.7-3 1.4-4.5 0.3-0.6 0-1.4-0.6-1.7 -0.6-0.3-1.4 0-1.7 0.6 -0.6 1.4-1.1 2.8-1.4 4.3H35.1c-0.9-4.3-3.1-8.2-6.3-11 -3.8-3.4-6.1-8-6.7-13 -0.1-0.7-0.7-1.2-1.4-1.1 -0.7 0.1-1.2 0.7-1.1 1.4 0.6 5.6 3.3 10.8 7.5 14.6 3 2.6 4.9 6.3 5.6 10.3l0 0.2v4.2h-0.4c-0.7 0-1.3 0.6-1.3 1.3s0.6 1.3 1.3 1.3h0.4v3.1h-0.4c-0.7 0-1.3 0.6-1.3 1.3 0 0.7 0.6 1.3 1.3 1.3h0.4v2.2c0 1.5 0.9 2.7 2.3 3.2 0.2 2.6 1.7 4.9 4.1 6.1C39.4 85 39.6 85 39.7 85c0.5 0 0.9-0.3 1.1-0.7 0.3-0.6 0.1-1.4-0.6-1.7 -1.5-0.7-2.4-2.1-2.7-3.6h9.7c-0.2 1.6-1.2 2.9-2.7 3.6 -0.6 0.3-0.9 1.1-0.6 1.7 0.2 0.4 0.7 0.7 1.1 0.7 0.2 0 0.4 0 0.6-0.1 2.4-1.2 3.9-3.5 4.1-6.1 1.3-0.5 2.3-1.7 2.3-3.2v-2.2h0.5c0.7 0 1.3-0.6 1.3-1.3 0-0.7-0.6-1.3-1.3-1.3h-0.5v-3.1L52.6 67.8 52.6 67.8zM35.3 62.2h14.3v3.1H35.3V62.2zM49.6 75.5c0 0.5-0.4 0.9-0.9 0.9h-12.4c-0.5 0-0.9-0.4-0.9-0.9v-2.2h14.3V75.5zM49.6 70.9H35.3v-3.1h14.3V70.9z" class="a"/><path d="M42.5 39.8c3.5 0 6.4-2.9 6.4-6.4 0-3.5-2.9-6.4-6.4-6.4s-6.4 2.9-6.4 6.4C36.1 37 39 39.8 42.5 39.8zM42.5 29.5c2.2 0 3.9 1.8 3.9 3.9s-1.8 3.9-3.9 3.9 -3.9-1.8-3.9-3.9S40.3 29.5 42.5 29.5z" class="b"/><path d="M28.7 29.5c-1.2 0-2.1 0.9-2.1 2.1v3.6c0 1.2 0.9 2.1 2.1 2.1h2.5c0.2 0.5 0.3 0.9 0.6 1.3l-1.8 1.8c-0.8 0.8-0.8 2.1 0 3l2.6 2.6c0.8 0.8 2.1 0.8 3 0l1.8-1.8c0.4 0.2 0.9 0.4 1.3 0.6v2.5c0 1.2 0.9 2.1 2.1 2.1h3.6c1.2 0 2.1-0.9 2.1-2.1v-2.5c0.5-0.2 0.9-0.3 1.3-0.5l1.8 1.8c0.4 0.4 0.9 0.6 1.5 0.6s1.1-0.2 1.5-0.6l2.6-2.6c0.8-0.8 0.8-2.1 0-3l-1.8-1.8c0.2-0.4 0.4-0.9 0.6-1.3h2.5c1.2 0 2.1-0.9 2.1-2.1v-3.6c0-1.2-0.9-2.1-2.1-2.1H53.8c-0.2-0.5-0.3-0.9-0.5-1.3l1.8-1.8c0.8-0.8 0.8-2.1 0-3l-2.6-2.6c-0.4-0.4-0.9-0.6-1.5-0.6s-1.1 0.2-1.5 0.6l-1.8 1.8c-0.4-0.2-0.9-0.4-1.3-0.5V19.6c0-1.2-0.9-2.1-2.1-2.1h-3.6c-1.2 0-2.1 0.9-2.1 2.1v2.5c-0.5 0.2-0.9 0.3-1.3 0.6l-1.8-1.8c-0.8-0.8-2.1-0.8-3 0l-2.6 2.6c-0.8 0.8-0.8 2.1 0 3l1.8 1.8c-0.2 0.4-0.4 0.9-0.5 1.3H28.7L28.7 29.5zM34.2 27.1l-2.1-2.1 2-2 2.1 2.1c0.4 0.4 1 0.5 1.5 0.2 0.8-0.5 1.6-0.8 2.5-1 0.6-0.1 0.9-0.6 0.9-1.2v-3h2.8v3c0 0.6 0.4 1.1 0.9 1.2 0.9 0.2 1.7 0.6 2.5 1 0.5 0.3 1.1 0.2 1.5-0.2l2.1-2.1 2 2 -2.1 2.1c-0.4 0.4-0.5 1-0.2 1.5 0.5 0.8 0.8 1.6 1 2.5 0.1 0.6 0.6 0.9 1.2 0.9h3v2.8h-3c-0.6 0-1.1 0.4-1.2 0.9 -0.2 0.9-0.6 1.7-1 2.5 -0.3 0.5-0.2 1.1 0.2 1.5l2.1 2.1 -2 2 -2.1-2.1c-0.4-0.4-1-0.5-1.5-0.2 -0.8 0.5-1.6 0.8-2.5 1 -0.6 0.1-0.9 0.6-0.9 1.2v3h-2.8v-3c0-0.6-0.4-1.1-0.9-1.2 -0.9-0.2-1.7-0.6-2.5-1 -0.5-0.3-1.1-0.2-1.5 0.2l-2.1 2.1 -2-2 2.1-2.1c0.4-0.4 0.5-1 0.2-1.5 -0.5-0.8-0.8-1.6-1-2.5 -0.1-0.6-0.6-0.9-1.2-0.9h-3v-2.8h3c0.6 0 1.1-0.4 1.2-0.9 0.2-0.9 0.6-1.7 1-2.5C34.6 28.1 34.6 27.5 34.2 27.1L34.2 27.1z" class="b"/><path d="M58.8 17.3c-4.3-4.3-10-6.7-16-6.8 -5.6-0.1-11.1 2-15.4 5.7 -4.2 3.7-7 8.8-7.7 14.3 -0.1 0.7 0.4 1.3 1.1 1.4 0.7 0.1 1.3-0.4 1.4-1.1 0.6-4.9 3.1-9.4 6.9-12.8 3.8-3.4 8.7-5.2 13.7-5.1 5.4 0.1 10.5 2.2 14.3 6.1 3.8 3.9 5.9 9 5.9 14.4 0 5.7-2.4 11.3-6.7 15.1 -0.7 0.6-1.3 1.2-1.9 1.9 -0.5 0.5-0.4 1.3 0.1 1.8 0.2 0.2 0.5 0.3 0.8 0.3 0.4 0 0.7-0.1 1-0.4 0.5-0.6 1.1-1.2 1.6-1.7 4.8-4.3 7.5-10.5 7.5-17C65.5 27.3 63.1 21.6 58.8 17.3L58.8 17.3z" class="a"/></svg>
