<svg xmlns="http://www.w3.org/2000/svg" viewBox="0 0 100 100" width="52" height="52"><path d="M98.5 90.8h-6V67.9c0-0.8-0.7-1.5-1.5-1.5s-1.5 0.7-1.5 1.5v22.9H76.7v-50.3h12.9v30.4c0 0.8 0.7 1.5 1.5 1.5s1.5-0.7 1.5-1.5V39c0-0.8-0.7-1.5-1.5-1.5H75.3c-0.8 0-1.5 0.7-1.5 1.5v51.8h-3.4V46.8c0-0.8-0.7-1.5-1.5-1.5H53.2c-0.8 0-1.5 0.7-1.5 1.5v43.9h-3.4V58.7c0-0.8-0.7-1.5-1.5-1.5H31.1c-0.8 0-1.5 0.7-1.5 1.5v32.1h-3.4V68.2c0-0.8-0.7-1.5-1.5-1.5H9c-0.8 0-1.5 0.7-1.5 1.5v22.6H1.5C0.7 90.8 0 91.4 0 92.2v6.3C0 99.3 0.7 100 1.5 100h25.6c0.8 0 1.5-0.7 1.5-1.5s-0.7-1.5-1.5-1.5H2.9v-3.4H97.1v3.4H24.1c-0.8 0-1.5 0.7-1.5 1.5S23.3 100 24.1 100h74.4c0.8 0 1.5-0.7 1.5-1.5v-6.3C100 91.4 99.3 90.8 98.5 90.8L98.5 90.8zM54.6 48.3h12.9v42.4H54.6L54.6 48.3zM32.5 60.1h12.9v30.6H32.5V60.1zM10.4 69.6h12.9v21.1H10.4V69.6z" fill="#0B2E58"/><path d="M8.8 53.4h22.3c1.3 0 2.5-0.5 3.4-1.5l18.2-19.8h12.4c1.2 0 2.4-0.5 3.3-1.4L83.3 15.8v4.6c0 0.8 0.7 1.5 1.5 1.5h6.3c0.8 0 1.5-0.7 1.5-1.5V4.6C92.5 2.1 90.4 0 87.9 0H72.1c-0.8 0-1.5 0.7-1.5 1.5v6.3c0 0.8 0.7 1.5 1.5 1.5h4.6L63.1 22.9H50.6c-1.3 0-2.5 0.5-3.4 1.5l-18.2 19.8h-4c-0.8 0-1.5 0.7-1.5 1.5 0 0.8 0.7 1.5 1.5 1.5h4.7c0.4 0 0.8-0.2 1.1-0.5l18.6-20.3c0.3-0.3 0.8-0.5 1.2-0.5h13.1c0.4 0 0.8-0.2 1-0.4L81.3 8.8c0.4-0.4 0.5-1 0.3-1.6 -0.2-0.5-0.8-0.9-1.4-0.9h-6.7V2.9h14.3c0.9 0 1.7 0.8 1.7 1.7v14.3h-3.4v-6.7c0-0.6-0.4-1.1-0.9-1.4 -0.5-0.2-1.2-0.1-1.6 0.3L66.2 28.7c-0.3 0.3-0.7 0.5-1.2 0.5H52c-0.4 0-0.8 0.2-1.1 0.5L32.3 50c-0.3 0.3-0.8 0.5-1.2 0.5H10.2v-3.4h15.7c0.8 0 1.5-0.7 1.5-1.5 0-0.8-0.7-1.5-1.5-1.5H8.8c-0.8 0-1.5 0.7-1.5 1.5v6.3C7.3 52.8 8 53.4 8.8 53.4L8.8 53.4z" fill="#FA8503"/></svg>
